<?xml version="1.0" encoding="UTF-8" standalone="no"?>
<!-- Generator: Adobe Illustrator 24.3.0, SVG Export Plug-In . SVG Version: 6.00 Build 0)  -->

<svg
   xmlns:dc="http://purl.org/dc/elements/1.1/"
   xmlns:cc="http://creativecommons.org/ns#"
   xmlns:rdf="http://www.w3.org/1999/02/22-rdf-syntax-ns#"
   xmlns:svg="http://www.w3.org/2000/svg"
   xmlns="http://www.w3.org/2000/svg"
   xmlns:sodipodi="http://sodipodi.sourceforge.net/DTD/sodipodi-0.dtd"
   xmlns:inkscape="http://www.inkscape.org/namespaces/inkscape"
   version="1.1"
   id="Layer_1"
   x="0px"
   y="0px"
   viewBox="0 0 250.97783 250.9752"
   xml:space="preserve"
   sodipodi:docname="tm-manifesto-logo.svg"
   width="250.97783"
   height="250.9752"
   inkscape:version="0.92.4 (5da689c313, 2019-01-14)"><metadata
   id="metadata88"><rdf:RDF><cc:Work
       rdf:about=""><dc:format>image/svg+xml</dc:format><dc:type
         rdf:resource="http://purl.org/dc/dcmitype/StillImage" /><dc:title></dc:title></cc:Work></rdf:RDF></metadata><defs
   id="defs86" /><sodipodi:namedview
   pagecolor="#000000"
   bordercolor="#666666"
   borderopacity="1"
   objecttolerance="10"
   gridtolerance="10"
   guidetolerance="10"
   inkscape:pageopacity="0"
   inkscape:pageshadow="2"
   inkscape:window-width="2358"
   inkscape:window-height="1411"
   id="namedview84"
   showgrid="false"
   inkscape:zoom="5.6568543"
   inkscape:cx="267.58283"
   inkscape:cy="131.95197"
   inkscape:window-x="1911"
   inkscape:window-y="-9"
   inkscape:window-maximized="1"
   inkscape:current-layer="g25"
   showguides="false"
   showborder="true"
   inkscape:pagecheckerboard="false" />
<style
   type="text/css"
   id="style2">
	.st0{fill:none;}
	.st1{fill:#FBB042;}
	.st2{fill:#F15B2B;}
	.st3{fill:#FFFFFF;}
</style>
<g
   id="g81"
   transform="translate(-155.16109,-374.5248)">
	<g
   id="g31">
		<circle
   id="SVGID_10_"
   class="st0"
   cx="280.70001"
   cy="499.79999"
   r="93.699997"
   style="fill:none" />
		<g
   id="g25">
			<ellipse
   style="fill:#ffffff;stroke-width:1.37953615"
   id="path4969"
   cx="280.7233"
   cy="499.79935"
   rx="93.535858"
   ry="93.505226" /><path
   class="st1"
   d="m 310.2,434.7 c 1.4,0 2.6,1.2 2.6,2.6 v 5.5 H 355 c -17.1,-22.3 -44.1,-36.7 -74.4,-36.7 -0.1,0 -0.2,0 -0.2,0 v 28.6 z"
   id="path7"
   inkscape:connector-curvature="0"
   style="fill:#fbb042" /><path
   class="st1"
   d="m 274.3,502.9 h -21.6 c -1.5,8.7 -9,15.3 -18.1,15.3 -9.1,0 -16.7,-6.6 -18.1,-15.3 h -29.4 c 0.6,18.9 6.8,36.3 17,50.8 h 70.2 z"
   id="path5"
   inkscape:connector-curvature="0"
   style="fill:#fbb042" />
			
			<path
   class="st1"
   d="m 234.5,481.4 c 9.1,0 16.7,6.6 18.1,15.3 h 21.6 v -39.6 h -29.7 c -1.4,0 -2.6,-1.2 -2.6,-2.6 V 449 h -40 c -8.9,13.8 -14.3,30.2 -14.9,47.7 h 29.4 c 1.5,-8.6 9,-15.3 18.1,-15.3 z"
   id="path9"
   inkscape:connector-curvature="0"
   style="fill:#fbb042" />
			<path
   class="st1"
   d="m 241.9,437.28466 c 0,-1.40384 1.2,-2.60713 2.6,-2.60713 h 29.7 V 406.3 c -27.7,1.90521 -52.1,15.74301 -68,36.6 h 35.6 v -5.61534 z"
   id="path11"
   inkscape:connector-curvature="0"
   style="fill:#fbb042;stroke-width:1.00136888" />
			<path
   class="st1"
   d="m 312.8,454.6 c 0,1.4 -1.2,2.6 -2.6,2.6 h -29.7 v 39.6 h 21.3 v -6 c 0,-1.2 1,-2.2 2.2,-2.2 h 44.5 c 1.2,0 2.2,1 2.2,2.2 v 6 h 23.7 c -0.6,-17.6 -6,-33.9 -14.9,-47.7 h -46.6 v 5.5 z"
   id="path13"
   inkscape:connector-curvature="0"
   style="fill:#fbb042" />
			<path
   class="st2"
   d="m 350.78594,508.81562 c 0,1.2 -1,2.2 -2.2,2.2 h -44.5 c -1.2,0 -2.2,-1 -2.2,-2.2 v -6 h -21.3 v 50.8 h 21.6 c 1.5,-8.7 9,-15.3 18.1,-15.3 9.1,0 16.7,6.6 18.1,15.3 h 19 c 10.2,-14.5 16.4,-31.9 17,-50.8 h -23.7 v 6 z"
   id="path15"
   inkscape:connector-curvature="0"
   style="fill:#f15b2b" />
			<path
   class="st2"
   d="m 320.2,575.2 c -9.1,0 -16.7,-6.6 -18.1,-15.3 h -21.6 v 33.7 c 0.1,0 0.2,0 0.2,0 28.9,0 54.7,-13.1 71.9,-33.7 h -14.3 c -1.5,8.7 -9,15.3 -18.1,15.3 z"
   id="path17"
   inkscape:connector-curvature="0"
   style="fill:#f15b2b" />
			<path
   class="st2"
   d="m 208.7,559.9 c 15.9,19 39.2,31.6 65.5,33.4 v -33.4 z"
   id="path19"
   inkscape:connector-curvature="0"
   style="fill:#f15b2b" />
			<path
   class="st3"
   d="m 277.4,556.8 v -57 h 97 c 0,-1 0,-2.1 -0.1,-3.1 h -23.7 v -6 c 0,-1.2 -1,-2.2 -2.2,-2.2 h -44.5 c -1.2,0 -2.2,1 -2.2,2.2 v 6 h -21.3 v -39.6 h 29.7 c 1.4,0 2.6,-1.2 2.6,-2.6 V 449 h 46.6 c -1.4,-2.1 -2.8,-4.2 -4.3,-6.2 h -42.3 v -5.5 c 0,-1.4 -1.2,-2.6 -2.6,-2.6 h -29.7 v -28.6 c -2.1,0 -4.1,0.1 -6.2,0.2 v 28.3 h -29.7 c -1.4,0 -2.6,1.2 -2.6,2.6 v 5.5 h -35.6 c -1.5,2 -3,4 -4.3,6.2 h 40 v 5.5 c 0,1.4 1.2,2.6 2.6,2.6 h 29.7 v 39.6 h -21.6 c -1.5,-8.7 -9,-15.3 -18.1,-15.3 -9.1,0 -16.7,6.6 -18.1,15.3 h -29.4 c 0,1 -0.1,2 -0.1,3.1 0,1 0,2.1 0.1,3.1 h 29.4 c 1.5,8.7 9,15.3 18.1,15.3 9.1,0 16.7,-6.6 18.1,-15.3 h 21.6 v 50.8 H 204 c 0.7,1 1.5,2.1 2.3,3.1 h 71.1 z"
   id="path21"
   inkscape:connector-curvature="0"
   style="fill:#ffffff" />
			<path
   class="st3"
   d="m 277.4,499.8 v 57 h -71.1 c 0.8,1 1.6,2.1 2.5,3.1 h 65.5 v 33.4 c 2,0.1 4.1,0.2 6.2,0.2 V 559.8 H 302 c 1.5,8.7 9,15.3 18.1,15.3 9.1,0 16.7,-6.6 18.1,-15.3 h 14.3 c 1.7,-2 3.2,-4 4.7,-6.2 h -19 c -1.5,-8.7 -9,-15.3 -18.1,-15.3 -9.1,0 -16.7,6.6 -18.1,15.3 h -21.6 v -50.8 h 21.3 v 6 c 0,1.2 1,2.2 2.2,2.2 h 44.5 c 1.2,0 2.2,-1 2.2,-2.2 v -6 h 23.7 c 0,-1 0.1,-2 0.1,-3.1 h -97 z"
   id="path23"
   inkscape:connector-curvature="0"
   style="fill:#ffffff" />
		</g>
		<path
   class="st2"
   d="m 389.9,438.3 c -0.7,-1.3 -2.4,-1.7 -3.7,-1 l -6.5,3.9 c -1.3,0.8 -1.7,2.4 -1,3.7 24.7,43.8 17.2,98.8 -18.5,134.6 -21.7,21.7 -50.5,33 -79.5,33 -15.7,0 -31.5,-3.3 -46.3,-10 l 4,-7.4 -15.7,0.5 -15.7,0.4 8.2,13.3 8.2,13.3 4.7,-8.7 c 16.8,7.8 34.7,11.6 52.5,11.6 32.4,0 64.5,-12.6 88.7,-36.8 40,-40 48.3,-101.5 20.6,-150.4 z"
   id="path27"
   inkscape:connector-curvature="0"
   style="fill:#f15b2b" />
		<path
   class="st2"
   d="m 346,391.2 -7.6,-13.7 -5.1,8.6 C 286,364.2 229.5,373.8 192,411.3 c -40,40 -48.3,101.4 -20.6,150.4 0.7,1.3 2.4,1.7 3.7,1 l 6.5,-3.9 c 1.3,-0.8 1.7,-2.4 1,-3.7 -24.7,-43.8 -17.2,-98.8 18.5,-134.6 33.3,-33.3 83.2,-42 125.3,-23.2 l -4.2,7 15.7,0.3 15.7,0.3 z"
   id="path29"
   inkscape:connector-curvature="0"
   style="fill:#f15b2b" />
	</g>
	
</g>
</svg>