<?xml version="1.0" encoding="UTF-8" standalone="no"?>
<svg
   xmlns:dc="http://purl.org/dc/elements/1.1/"
   xmlns:cc="http://creativecommons.org/ns#"
   xmlns:rdf="http://www.w3.org/1999/02/22-rdf-syntax-ns#"
   xmlns:svg="http://www.w3.org/2000/svg"
   xmlns="http://www.w3.org/2000/svg"
   height="250.9752"
   width="2728.6775"
   xml:space="preserve"
   viewBox="0 0 2728.6775 250.9752"
   y="0px"
   x="0px"
   id="Layer_1"
   version="1.1"><metadata
   id="metadata3968"><rdf:RDF><cc:Work
       rdf:about=""><dc:format>image/svg+xml</dc:format><dc:type
         rdf:resource="http://purl.org/dc/dcmitype/StillImage" /><dc:title></dc:title></cc:Work></rdf:RDF></metadata><defs
   id="defs3966" />
<style
   id="style3882"
   type="text/css">
	.st0{fill:none;}
	.st1{fill:#FBB042;}
	.st2{fill:#F15B2B;}
	.st3{fill:#FFFFFF;}
	.st4{fill:#424143;}
</style>
<g
   transform="translate(-99.041605,-680.04433)"
   id="g3961">
	
	<g
   transform="translate(-22.471618,226.21425)"
   id="g3959">
		<path
   style="fill:#424143;stroke-width:2.23767757"
   id="path3913"
   d="m 424.00028,524.27037 h 81.67524 v 18.1252 h -29.76111 v 93.31115 h -22.37678 v -93.31115 h -29.76111 v -18.1252 z"
   class="st4" />
		<path
   style="fill:#424143;stroke-width:2.23767757"
   id="path3915"
   d="m 592.27364,588.26795 h -47.66253 v 47.43877 H 522.23434 V 524.27037 h 22.37677 v 45.87239 h 47.66253 v -45.87239 h 22.37678 v 111.43635 h -22.37678 z"
   class="st4" />
		<path
   style="fill:#424143;stroke-width:2.23767757"
   id="path3917"
   d="m 678.42423,524.27037 c 26.85213,0 40.27819,15.43998 40.27819,34.23648 0,13.64982 -7.6081,27.29966 -25.28575,31.99879 l 26.62836,45.20108 h -25.95705 l -24.61446,-43.41094 h -10.51708 v 43.41094 H 636.57966 V 524.27037 Z m -0.89507,18.57273 h -18.57272 v 32.67009 h 18.57272 c 12.53099,0 18.1252,-6.48926 18.1252,-16.55882 0,-10.06954 -5.59421,-16.11127 -18.1252,-16.11127 z"
   class="st4" />
		<path
   style="fill:#424143;stroke-width:2.23767757"
   id="path3919"
   d="m 803.51042,542.39557 h -42.29211 v 27.74719 h 37.59298 v 17.67765 h -37.59298 v 29.53735 h 42.29211 v 18.12519 H 738.84154 V 523.82284 h 64.66888 z"
   class="st4" />
		<path
   style="fill:#424143;stroke-width:2.23767757"
   id="path3921"
   d="m 892.12244,614.44878 h -44.30601 l -7.38434,21.25794 H 816.93648 L 856.99091,524.0466 h 25.95706 l 40.05442,111.66012 h -23.71937 z m -22.153,-64.44511 -16.11128,46.54369 h 32.22256 z"
   class="st4" />
		<path
   style="fill:#424143;stroke-width:2.23767757"
   id="path3923"
   d="m 932.1769,524.27037 h 81.6752 v 18.1252 h -29.76106 v 93.31115 h -22.37682 v -93.31115 h -29.76109 v -18.1252 z"
   class="st4" />
		<path
   style="fill:#424143;stroke-width:2.23767757"
   id="path3925"
   d="m 1081.7864,524.31722 h 25.2857 l 35.3553,82.79407 35.3552,-82.79407 h 25.2858 v 111.43634 h -22.3768 v -72.50075 l -29.761,72.50075 h -17.0064 l -29.9849,-72.50075 v 72.50075 h -22.3768 V 524.31722 Z"
   class="st4" />
		<path
   style="fill:#424143;stroke-width:2.23767757"
   id="path3927"
   d="m 1276.9117,636.87239 c -31.5512,0 -57.0606,-23.71937 -57.0606,-57.06077 0,-33.34141 25.7332,-57.06078 57.0606,-57.06078 31.7752,0 57.0608,23.71937 57.0608,57.06078 0,33.56516 -25.5094,57.06077 -57.0608,57.06077 z m 0,-19.91532 c 20.1393,0 34.0128,-14.5449 34.0128,-37.14545 0,-22.60055 -13.8735,-36.92169 -34.0128,-36.92169 -20.3627,0 -34.2363,14.09738 -34.2363,36.92169 0.2236,22.60055 14.0973,37.14545 34.2363,37.14545 z"
   class="st4" />
		<path
   style="fill:#424143;stroke-width:2.23767757"
   id="path3929"
   d="m 1448.094,580.25915 c 0,33.78894 -23.0479,55.49441 -58.627,55.49441 h -38.9357 V 524.31722 h 38.9357 c 35.5791,0 58.627,22.15299 58.627,55.94193 z m -59.5221,36.47415 c 23.4956,0 36.6979,-13.42606 36.6979,-36.47415 0,-23.04808 -13.2023,-36.92168 -36.6979,-36.92168 h -15.8874 v 73.6196 h 15.8874 z"
   class="st4" />
		<path
   style="fill:#424143;stroke-width:2.23767757"
   id="path3931"
   d="m 1529.5456,542.44241 h -42.292 v 27.97097 h 37.5929 v 17.67764 h -37.5929 v 29.53735 h 42.292 v 18.12519 h -64.6689 v -111.6601 h 64.6689 z"
   class="st4" />
		<path
   style="fill:#424143;stroke-width:2.23767757"
   id="path3933"
   d="m 1572.2852,524.31722 v 93.75869 h 36.698 v 17.67765 h -59.0747 V 524.31722 Z"
   class="st4" />
		<path
   style="fill:#424143;stroke-width:2.23767757"
   id="path3935"
   d="m 1623.0806,524.31722 h 22.3767 v 111.43634 h -22.3767 z"
   class="st4" />
		<path
   style="fill:#424143;stroke-width:2.23767757"
   id="path3937"
   d="m 1762.7117,524.31722 v 111.66011 h -22.3769 l -50.5715,-76.52858 v 76.52858 h -22.3766 V 524.31722 h 22.3766 l 50.5715,76.52857 v -76.52857 z"
   class="st4" />
		<path
   style="fill:#424143;stroke-width:2.23767757"
   id="path3939"
   d="m 1888.0216,557.88237 h -25.7333 c -5.1466,-9.39824 -14.3212,-14.32114 -26.1809,-14.32114 -19.9152,0 -33.7889,14.09738 -33.7889,36.47416 0,22.60055 14.0974,36.69791 34.684,36.69791 17.2302,0 28.1949,-9.84578 31.5513,-25.7333 h -38.2643 v -17.00635 h 60.4174 v 19.4678 c -4.4755,22.60055 -24.8383,43.41094 -54.3757,43.41094 -32.4463,0 -57.0607,-23.49561 -57.0607,-56.837 0,-33.34141 24.6144,-57.06079 56.8369,-57.06079 25.0621,0 44.7536,12.53099 51.9142,34.90777 z"
   class="st4" />
		<path
   style="fill:#424143;stroke-width:2.23767757"
   id="path3941"
   d="m 1963.1752,524.62944 h 25.2856 l 35.3554,82.79407 35.3553,-82.79407 h 25.2857 v 111.43635 h -22.3768 v -72.50076 l -29.761,72.50076 h -17.0064 l -29.9849,-72.50076 v 72.50076 h -22.3767 V 524.62944 Z"
   class="st4" />
		<path
   style="fill:#424143;stroke-width:2.23767757"
   id="path3943"
   d="m 2174.8593,614.80785 h -44.3059 l -7.3843,21.25794 h -23.4956 l 40.0543,-111.66012 h 25.9572 l 40.2781,111.66012 h -23.7194 z m -22.1529,-64.44511 -16.1114,46.54369 h 32.2226 z"
   class="st4" />
		<path
   style="fill:#424143;stroke-width:2.23767757"
   id="path3945"
   d="m 2316.2807,524.40567 v 111.66012 h -22.3769 l -50.5715,-76.52856 v 76.52856 h -22.3767 V 524.40567 h 22.3767 l 50.5715,76.52859 v -76.52859 z"
   class="st4" />
		<path
   style="fill:#424143;stroke-width:2.23767757"
   id="path3947"
   d="m 2338.2099,524.62944 h 22.3767 v 111.43635 h -22.3767 z"
   class="st4" />
		<path
   style="fill:#424143;stroke-width:2.23767757"
   id="path3949"
   d="m 2382.5158,524.62944 h 68.6967 v 18.1252 h -46.5435 v 28.4185 h 35.5791 v 17.67765 h -35.5791 v 46.99123 h -22.3769 V 524.62944 Z"
   class="st4" />
		<path
   style="fill:#424143;stroke-width:2.23767757"
   id="path3951"
   d="m 2531.769,542.53086 h -42.2921 v 27.97097 h 37.593 v 17.67766 h -37.593 v 29.53734 h 42.2921 v 18.12519 h -64.6689 V 524.18191 h 64.6689 z"
   class="st4" />
		<path
   style="fill:#424143;stroke-width:2.23767757"
   id="path3953"
   d="m 2590.6199,637.18463 c -23.048,0 -40.9494,-12.08346 -41.397,-33.11763 h 23.9431 c 0.6714,8.95071 6.4893,14.76866 17.0065,14.76866 10.5169,0 16.7825,-5.59417 16.7825,-13.64982 0,-24.16692 -57.5083,-9.622 -57.2845,-49.90021 0,-20.1391 16.3351,-32.22256 39.1592,-32.22256 22.8244,0 38.4881,11.63592 39.8307,31.77503 h -24.6143 c -0.4476,-7.38434 -6.4893,-12.97854 -15.8876,-13.20232 -8.727,-0.22375 -15.2161,4.02784 -15.2161,12.97855 0,22.37678 57.0607,9.84578 57.0607,49.22891 0,17.45388 -14.0973,33.34139 -39.3832,33.34139 z"
   class="st4" />
		<path
   style="fill:#424143;stroke-width:2.23767757"
   id="path3955"
   d="m 2643.4291,524.62944 h 81.6753 v 18.1252 h -29.7611 v 93.31115 h -22.3768 v -93.31115 h -29.7611 v -18.1252 z"
   class="st4" />
		<path
   style="fill:#424143;stroke-width:2.23767757"
   id="path3957"
   d="m 2793.1298,637.18463 c -31.5512,0 -57.0608,-23.71938 -57.0608,-57.06078 0,-33.3414 25.7333,-57.06078 57.0608,-57.06078 31.775,0 57.0608,23.71938 57.0608,57.06078 -0.2238,33.3414 -25.5095,57.06078 -57.0608,57.06078 z m 0,-20.13909 c 20.1391,0 34.0126,-14.54491 34.0126,-37.14545 0,-22.60056 -13.8735,-36.92169 -34.0126,-36.92169 -20.3629,0 -34.2365,14.09737 -34.2365,36.92169 0,22.82432 13.8736,37.14545 34.2365,37.14545 z"
   class="st4" />
	</g>
<circle
   style="fill:none"
   r="93.699997"
   cy="805.31952"
   cx="224.58052"
   class="st0"
   id="SVGID_10_" /><ellipse
   ry="93.505226"
   rx="93.535858"
   cy="805.31885"
   cx="224.60381"
   id="path4969"
   style="fill:#ffffff;stroke-width:1.37953615" /><path
   style="fill:#fbb042"
   id="path7"
   d="m 254.08052,740.21953 c 1.4,0 2.6,1.2 2.6,2.6 v 5.5 h 42.2 c -17.1,-22.3 -44.1,-36.7 -74.4,-36.7 -0.1,0 -0.2,0 -0.2,0 v 28.6 z"
   class="st1" /><path
   style="fill:#fbb042"
   id="path5"
   d="m 218.18052,808.41953 h -21.59999 c -1.5,8.7 -9,15.3 -18.1,15.3 -9.1,0 -16.7,-6.6 -18.1,-15.3 h -29.4 c 0.6,18.9 6.8,36.3 17,50.8 h 70.19999 z"
   class="st1" /><path
   style="fill:#fbb042"
   id="path9"
   d="m 178.38053,786.91953 c 9.1,0 16.7,6.6 18.1,15.3 h 21.59999 v -39.6 h -29.69999 c -1.4,0 -2.6,-1.2 -2.6,-2.6 v -5.5 h -40 c -8.9,13.8 -14.3,30.2 -14.9,47.7 h 29.4 c 1.5,-8.6 9,-15.3 18.1,-15.3 z"
   class="st1" /><path
   style="fill:#fbb042;stroke-width:1.00136888"
   id="path11"
   d="m 185.78053,742.80419 c 0,-1.40384 1.2,-2.60713 2.6,-2.60713 h 29.69999 v -28.37753 c -27.69999,1.90521 -52.09999,15.74301 -67.99999,36.6 h 35.6 v -5.61534 z"
   class="st1" /><path
   style="fill:#fbb042"
   id="path13"
   d="m 256.68052,760.11953 c 0,1.4 -1.2,2.6 -2.6,2.6 h -29.7 v 39.6 h 21.3 v -6 c 0,-1.2 1,-2.2 2.2,-2.2 h 44.5 c 1.2,0 2.2,1 2.2,2.2 v 6 h 23.7 c -0.6,-17.6 -6,-33.9 -14.9,-47.7 h -46.6 v 5.5 z"
   class="st1" /><path
   style="fill:#f15b2b"
   id="path15"
   d="m 294.66646,814.33515 c 0,1.2 -1,2.2 -2.2,2.2 h -44.5 c -1.2,0 -2.2,-1 -2.2,-2.2 v -6 h -21.3 v 50.8 h 21.6 c 1.5,-8.7 9,-15.3 18.1,-15.3 9.1,0 16.7,6.6 18.1,15.3 h 19 c 10.2,-14.5 16.4,-31.9 17,-50.8 h -23.7 v 6 z"
   class="st2" /><path
   style="fill:#f15b2b"
   id="path17"
   d="m 264.08052,880.71953 c -9.1,0 -16.7,-6.6 -18.1,-15.3 h -21.6 v 33.7 c 0.1,0 0.2,0 0.2,0 28.9,0 54.7,-13.1 71.9,-33.7 h -14.3 c -1.5,8.7 -9,15.3 -18.1,15.3 z"
   class="st2" /><path
   style="fill:#f15b2b"
   id="path19"
   d="m 152.58053,865.41953 c 15.9,19 39.2,31.6 65.49999,33.4 v -33.4 z"
   class="st2" /><path
   style="fill:#ffffff"
   id="path21"
   d="m 221.28052,862.31953 v -57 h 97 c 0,-1 0,-2.1 -0.1,-3.1 h -23.7 v -6 c 0,-1.2 -1,-2.2 -2.2,-2.2 h -44.5 c -1.2,0 -2.2,1 -2.2,2.2 v 6 h -21.3 v -39.6 h 29.7 c 1.4,0 2.6,-1.2 2.6,-2.6 v -5.5 h 46.6 c -1.4,-2.1 -2.8,-4.2 -4.3,-6.2 h -42.3 v -5.5 c 0,-1.4 -1.2,-2.6 -2.6,-2.6 h -29.7 v -28.6 c -2.1,0 -4.1,0.1 -6.2,0.2 v 28.3 h -29.69999 c -1.4,0 -2.6,1.2 -2.6,2.6 v 5.5 h -35.6 c -1.5,2 -3,4 -4.3,6.2 h 40 v 5.5 c 0,1.4 1.2,2.6 2.6,2.6 h 29.69999 v 39.6 h -21.59999 c -1.5,-8.7 -9,-15.3 -18.1,-15.3 -9.1,0 -16.7,6.6 -18.1,15.3 h -29.4 c 0,1 -0.1,2 -0.1,3.1 0,1 0,2.1 0.1,3.1 h 29.4 c 1.5,8.7 9,15.3 18.1,15.3 9.1,0 16.7,-6.6 18.1,-15.3 h 21.59999 v 50.8 h -70.29999 c 0.7,1 1.5,2.1 2.3,3.1 h 71.09999 z"
   class="st3" /><path
   style="fill:#ffffff"
   id="path23"
   d="m 221.28052,805.31953 v 57 h -71.09999 c 0.8,1 1.6,2.1 2.5,3.1 h 65.49999 v 33.4 c 2,0.1 4.1,0.2 6.2,0.2 v -33.7 h 21.5 c 1.5,8.7 9,15.3 18.1,15.3 9.1,0 16.7,-6.6 18.1,-15.3 h 14.3 c 1.7,-2 3.2,-4 4.7,-6.2 h -19 c -1.5,-8.7 -9,-15.3 -18.1,-15.3 -9.1,0 -16.7,6.6 -18.1,15.3 h -21.6 v -50.8 h 21.3 v 6 c 0,1.2 1,2.2 2.2,2.2 h 44.5 c 1.2,0 2.2,-1 2.2,-2.2 v -6 h 23.7 c 0,-1 0.1,-2 0.1,-3.1 h -97 z"
   class="st3" /><path
   style="fill:#f15b2b"
   id="path27"
   d="m 333.78052,743.81953 c -0.7,-1.3 -2.4,-1.7 -3.7,-1 l -6.5,3.9 c -1.3,0.8 -1.7,2.4 -1,3.7 24.7,43.8 17.2,98.8 -18.5,134.6 -21.7,21.7 -50.5,33 -79.5,33 -15.7,0 -31.49999,-3.3 -46.29999,-10 l 4,-7.4 -15.7,0.5 -15.7,0.4 8.2,13.3 8.2,13.3 4.7,-8.7 c 16.8,7.8 34.69999,11.6 52.49999,11.6 32.4,0 64.5,-12.6 88.7,-36.8 40,-40 48.3,-101.5 20.6,-150.4 z"
   class="st2" /><path
   style="fill:#f15b2b"
   id="path29"
   d="m 289.88052,696.71953 -7.6,-13.7 -5.1,8.6 c -47.3,-21.9 -103.79999,-12.3 -141.29999,25.2 -40.000017,40 -48.300017,101.4 -20.6,150.4 0.7,1.3 2.4,1.7 3.7,1 l 6.5,-3.9 c 1.3,-0.8 1.7,-2.4 1,-3.7 -24.70001,-43.8 -17.2,-98.8 18.5,-134.6 33.3,-33.3 83.19999,-42 125.29999,-23.2 l -4.2,7 15.7,0.3 15.7,0.3 z"
   class="st2" /></g>
</svg>