<?xml version="1.0" encoding="UTF-8" standalone="no"?>
<!-- Generator: Adobe Illustrator 24.3.0, SVG Export Plug-In . SVG Version: 6.00 Build 0)  -->

<svg
   xmlns:dc="http://purl.org/dc/elements/1.1/"
   xmlns:cc="http://creativecommons.org/ns#"
   xmlns:rdf="http://www.w3.org/1999/02/22-rdf-syntax-ns#"
   xmlns:svg="http://www.w3.org/2000/svg"
   xmlns="http://www.w3.org/2000/svg"
   xmlns:sodipodi="http://sodipodi.sourceforge.net/DTD/sodipodi-0.dtd"
   xmlns:inkscape="http://www.inkscape.org/namespaces/inkscape"
   version="1.1"
   id="Layer_1"
   x="0px"
   y="0px"
   viewBox="0 0 690.13586 250.9752"
   xml:space="preserve"
   sodipodi:docname="tm-manifesto-med.svg"
   width="690.13586"
   height="250.9752"
   inkscape:version="0.92.4 (5da689c313, 2019-01-14)"
   inkscape:export-filename="C:\Users\LC\Documents\TM_WorkingGroup\tm-manifesto-med.png"
   inkscape:export-xdpi="92"
   inkscape:export-ydpi="92"><metadata
   id="metadata4118"><rdf:RDF><cc:Work
       rdf:about=""><dc:format>image/svg+xml</dc:format><dc:type
         rdf:resource="http://purl.org/dc/dcmitype/StillImage" /><dc:title></dc:title></cc:Work></rdf:RDF></metadata><defs
   id="defs4116" /><sodipodi:namedview
   pagecolor="#ffffff"
   bordercolor="#666666"
   borderopacity="1"
   objecttolerance="10"
   gridtolerance="10"
   guidetolerance="10"
   inkscape:pageopacity="0"
   inkscape:pageshadow="2"
   inkscape:window-width="2035"
   inkscape:window-height="1116"
   id="namedview4114"
   showgrid="false"
   fit-margin-top="0"
   fit-margin-left="0"
   fit-margin-right="0"
   fit-margin-bottom="0"
   inkscape:zoom="2.6700352"
   inkscape:cx="167.1147"
   inkscape:cy="189.65295"
   inkscape:window-x="2168"
   inkscape:window-y="113"
   inkscape:window-maximized="0"
   inkscape:current-layer="g4111" />
<style
   type="text/css"
   id="style4032">
	.st0{fill:none;}
	.st1{fill:#FBB042;}
	.st2{fill:#F15B2B;}
	.st3{fill:#FFFFFF;}
	.st4{fill:#424143;}
</style>
<g
   id="g4111"
   transform="translate(-154.76416,-374.05157)">
	
	<g
   id="g4109">
		<path
   class="st4"
   d="m 445.8,407.5 h 36.5 v 8.1 H 469 v 41.7 h -10 v -41.7 h -13.3 v -8.1 z"
   id="path4063"
   inkscape:connector-curvature="0"
   style="fill:#424143" />
		<path
   class="st4"
   d="m 521,436.1 h -21.3 v 21.2 h -10 v -49.8 h 10 V 428 H 521 v -20.5 h 10 v 49.8 h -10 z"
   id="path4065"
   inkscape:connector-curvature="0"
   style="fill:#424143" />
		<path
   class="st4"
   d="m 559.5,407.5 c 12,0 18,6.9 18,15.3 0,6.1 -3.4,12.2 -11.3,14.3 l 11.9,20.2 h -11.6 l -11,-19.4 h -4.7 v 19.4 h -10 v -49.8 z m -0.4,8.3 h -8.3 v 14.6 h 8.3 c 5.6,0 8.1,-2.9 8.1,-7.4 0,-4.5 -2.5,-7.2 -8.1,-7.2 z"
   id="path4067"
   inkscape:connector-curvature="0"
   style="fill:#424143" />
		<path
   class="st4"
   d="M 615.4,415.6 H 596.5 V 428 h 16.8 v 7.9 h -16.8 v 13.2 h 18.9 v 8.1 h -28.9 v -49.9 h 28.9 z"
   id="path4069"
   inkscape:connector-curvature="0"
   style="fill:#424143" />
		<path
   class="st4"
   d="m 655,447.8 h -19.8 l -3.3,9.5 h -10.5 l 17.9,-49.9 h 11.6 l 17.9,49.9 h -10.6 z m -9.9,-28.8 -7.2,20.8 h 14.4 z"
   id="path4071"
   inkscape:connector-curvature="0"
   style="fill:#424143" />
		<path
   class="st4"
   d="m 672.9,407.5 h 36.5 v 8.1 h -13.3 v 41.7 h -10 v -41.7 h -13.3 v -8.1 z"
   id="path4073"
   inkscape:connector-curvature="0"
   style="fill:#424143" />
		<path
   class="st4"
   d="m 448.5,474.8 h 11.3 l 15.8,37 15.8,-37 h 11.3 v 49.8 h -10 v -32.4 l -13.3,32.4 h -7.6 l -13.4,-32.4 v 32.4 h -10 v -49.8 z"
   id="path4075"
   inkscape:connector-curvature="0"
   style="fill:#424143" />
		<path
   class="st4"
   d="m 535.7,525.1 c -14.1,0 -25.5,-10.6 -25.5,-25.5 0,-14.9 11.5,-25.5 25.5,-25.5 14.2,0 25.5,10.6 25.5,25.5 0,15 -11.4,25.5 -25.5,25.5 z m 0,-8.9 c 9,0 15.2,-6.5 15.2,-16.6 0,-10.1 -6.2,-16.5 -15.2,-16.5 -9.1,0 -15.3,6.3 -15.3,16.5 0.1,10.1 6.3,16.6 15.3,16.6 z"
   id="path4077"
   inkscape:connector-curvature="0"
   style="fill:#424143" />
		<path
   class="st4"
   d="m 612.2,499.8 c 0,15.1 -10.3,24.8 -26.2,24.8 H 568.6 V 474.8 H 586 c 15.9,0 26.2,9.9 26.2,25 z m -26.6,16.3 c 10.5,0 16.4,-6 16.4,-16.3 0,-10.3 -5.9,-16.5 -16.4,-16.5 h -7.1 v 32.9 h 7.1 z"
   id="path4079"
   inkscape:connector-curvature="0"
   style="fill:#424143" />
		<path
   class="st4"
   d="m 648.6,482.9 h -18.9 v 12.5 h 16.8 v 7.9 h -16.8 v 13.2 h 18.9 v 8.1 h -28.9 v -49.9 h 28.9 z"
   id="path4081"
   inkscape:connector-curvature="0"
   style="fill:#424143" />
		<path
   class="st4"
   d="m 667.7,474.8 v 41.9 h 16.4 v 7.9 h -26.4 v -49.8 z"
   id="path4083"
   inkscape:connector-curvature="0"
   style="fill:#424143" />
		<path
   class="st4"
   d="m 690.4,474.8 h 10 v 49.8 h -10 z"
   id="path4085"
   inkscape:connector-curvature="0"
   style="fill:#424143" />
		<path
   class="st4"
   d="m 752.8,474.8 v 49.9 h -10 l -22.6,-34.2 v 34.2 h -10 v -49.9 h 10 l 22.6,34.2 v -34.2 z"
   id="path4087"
   inkscape:connector-curvature="0"
   style="fill:#424143" />
		<path
   class="st4"
   d="m 808.8,489.8 h -11.5 c -2.3,-4.2 -6.4,-6.4 -11.7,-6.4 -8.9,0 -15.1,6.3 -15.1,16.3 0,10.1 6.3,16.4 15.5,16.4 7.7,0 12.6,-4.4 14.1,-11.5 H 783 V 497 h 27 v 8.7 c -2,10.1 -11.1,19.4 -24.3,19.4 -14.5,0 -25.5,-10.5 -25.5,-25.4 0,-14.9 11,-25.5 25.4,-25.5 11.2,0 20,5.6 23.2,15.6 z"
   id="path4089"
   inkscape:connector-curvature="0"
   style="fill:#424143" />
		<path
   class="st4"
   d="m 448.5,542.2 h 11.3 l 15.8,37 15.8,-37 h 11.3 V 592 h -10 V 559.6 L 479.4,592 h -7.6 L 458.4,559.6 V 592 h -10 v -49.8 z"
   id="path4091"
   inkscape:connector-curvature="0"
   style="fill:#424143" />
		<path
   class="st4"
   d="M 543.1,582.5 H 523.3 L 520,592 h -10.5 l 17.9,-49.9 H 539 l 18,49.9 h -10.6 z m -9.9,-28.8 -7.2,20.8 h 14.4 z"
   id="path4093"
   inkscape:connector-curvature="0"
   style="fill:#424143" />
		<path
   class="st4"
   d="M 606.3,542.1 V 592 h -10 L 573.7,557.8 V 592 h -10 v -49.9 h 10 l 22.6,34.2 v -34.2 z"
   id="path4095"
   inkscape:connector-curvature="0"
   style="fill:#424143" />
		<path
   class="st4"
   d="m 616.1,542.2 h 10 V 592 h -10 z"
   id="path4097"
   inkscape:connector-curvature="0"
   style="fill:#424143" />
		<path
   class="st4"
   d="m 635.9,542.2 h 30.7 v 8.1 H 645.8 V 563 h 15.9 v 7.9 h -15.9 v 21 h -10 v -49.7 z"
   id="path4099"
   inkscape:connector-curvature="0"
   style="fill:#424143" />
		<path
   class="st4"
   d="m 702.6,550.2 h -18.9 v 12.5 h 16.8 v 7.9 h -16.8 v 13.2 h 18.9 v 8.1 H 673.7 V 542 h 28.9 z"
   id="path4101"
   inkscape:connector-curvature="0"
   style="fill:#424143" />
		<path
   class="st4"
   d="m 728.9,592.5 c -10.3,0 -18.3,-5.4 -18.5,-14.8 h 10.7 c 0.3,4 2.9,6.6 7.6,6.6 4.7,0 7.5,-2.5 7.5,-6.1 0,-10.8 -25.7,-4.3 -25.6,-22.3 0,-9 7.3,-14.4 17.5,-14.4 10.2,0 17.2,5.2 17.8,14.2 h -11 c -0.2,-3.3 -2.9,-5.8 -7.1,-5.9 -3.9,-0.1 -6.8,1.8 -6.8,5.8 0,10 25.5,4.4 25.5,22 0,7.8 -6.3,14.9 -17.6,14.9 z"
   id="path4103"
   inkscape:connector-curvature="0"
   style="fill:#424143" />
		<path
   class="st4"
   d="M 752.5,542.2 H 789 v 8.1 H 775.7 V 592 h -10 v -41.7 h -13.3 v -8.1 z"
   id="path4105"
   inkscape:connector-curvature="0"
   style="fill:#424143" />
		<path
   class="st4"
   d="m 819.4,592.5 c -14.1,0 -25.5,-10.6 -25.5,-25.5 0,-14.9 11.5,-25.5 25.5,-25.5 14.2,0 25.5,10.6 25.5,25.5 -0.1,14.9 -11.4,25.5 -25.5,25.5 z m 0,-9 c 9,0 15.2,-6.5 15.2,-16.6 0,-10.1 -6.2,-16.5 -15.2,-16.5 -9.1,0 -15.3,6.3 -15.3,16.5 0,10.2 6.2,16.6 15.3,16.6 z"
   id="path4107"
   inkscape:connector-curvature="0"
   style="fill:#424143" />
	</g>
<circle
   id="SVGID_10_"
   class="st0"
   cx="280.3031"
   cy="499.32675"
   r="93.699997"
   style="fill:none" /><ellipse
   style="fill:#ffffff;stroke-width:1.37953615"
   id="path4969"
   cx="280.32639"
   cy="499.32611"
   rx="93.535858"
   ry="93.505226" /><path
   class="st1"
   d="m 309.80307,434.22677 c 1.4,0 2.6,1.2 2.6,2.6 v 5.5 h 42.2 c -17.1,-22.3 -44.1,-36.7 -74.4,-36.7 -0.1,0 -0.2,0 -0.2,0 v 28.6 z"
   id="path7"
   inkscape:connector-curvature="0"
   style="fill:#fbb042" /><path
   class="st1"
   d="m 273.90307,502.42677 h -21.6 c -1.5,8.7 -9,15.3 -18.1,15.3 -9.1,0 -16.7,-6.6 -18.1,-15.3 h -29.4 c 0.6,18.9 6.8,36.3 17,50.8 h 70.2 z"
   id="path5"
   inkscape:connector-curvature="0"
   style="fill:#fbb042" /><path
   class="st1"
   d="m 234.10307,480.92677 c 9.1,0 16.7,6.6 18.1,15.3 h 21.6 v -39.6 h -29.7 c -1.4,0 -2.6,-1.2 -2.6,-2.6 v -5.5 h -40 c -8.9,13.8 -14.3,30.2 -14.9,47.7 h 29.4 c 1.5,-8.6 9,-15.3 18.1,-15.3 z"
   id="path9"
   inkscape:connector-curvature="0"
   style="fill:#fbb042" /><path
   class="st1"
   d="m 241.50307,436.81143 c 0,-1.40384 1.2,-2.60713 2.6,-2.60713 h 29.7 v -28.37753 c -27.7,1.90521 -52.1,15.74301 -68,36.6 h 35.6 v -5.61534 z"
   id="path11"
   inkscape:connector-curvature="0"
   style="fill:#fbb042;stroke-width:1.00136888" /><path
   class="st1"
   d="m 312.40307,454.12677 c 0,1.4 -1.2,2.6 -2.6,2.6 h -29.7 v 39.6 h 21.3 v -6 c 0,-1.2 1,-2.2 2.2,-2.2 h 44.5 c 1.2,0 2.2,1 2.2,2.2 v 6 h 23.7 c -0.6,-17.6 -6,-33.9 -14.9,-47.7 h -46.6 v 5.5 z"
   id="path13"
   inkscape:connector-curvature="0"
   style="fill:#fbb042" /><path
   class="st2"
   d="m 350.38901,508.34239 c 0,1.2 -1,2.2 -2.2,2.2 h -44.5 c -1.2,0 -2.2,-1 -2.2,-2.2 v -6 h -21.3 v 50.8 h 21.6 c 1.5,-8.7 9,-15.3 18.1,-15.3 9.1,0 16.7,6.6 18.1,15.3 h 19 c 10.2,-14.5 16.4,-31.9 17,-50.8 h -23.7 v 6 z"
   id="path15"
   inkscape:connector-curvature="0"
   style="fill:#f15b2b" /><path
   class="st2"
   d="m 319.80307,574.72677 c -9.1,0 -16.7,-6.6 -18.1,-15.3 h -21.6 v 33.7 c 0.1,0 0.2,0 0.2,0 28.9,0 54.7,-13.1 71.9,-33.7 h -14.3 c -1.5,8.7 -9,15.3 -18.1,15.3 z"
   id="path17"
   inkscape:connector-curvature="0"
   style="fill:#f15b2b" /><path
   class="st2"
   d="m 208.30307,559.42677 c 15.9,19 39.2,31.6 65.5,33.4 v -33.4 z"
   id="path19"
   inkscape:connector-curvature="0"
   style="fill:#f15b2b" /><path
   class="st3"
   d="m 277.00307,556.32677 v -57 h 97 c 0,-1 0,-2.1 -0.1,-3.1 h -23.7 v -6 c 0,-1.2 -1,-2.2 -2.2,-2.2 h -44.5 c -1.2,0 -2.2,1 -2.2,2.2 v 6 h -21.3 v -39.6 h 29.7 c 1.4,0 2.6,-1.2 2.6,-2.6 v -5.5 h 46.6 c -1.4,-2.1 -2.8,-4.2 -4.3,-6.2 h -42.3 v -5.5 c 0,-1.4 -1.2,-2.6 -2.6,-2.6 h -29.7 v -28.6 c -2.1,0 -4.1,0.1 -6.2,0.2 v 28.3 h -29.7 c -1.4,0 -2.6,1.2 -2.6,2.6 v 5.5 h -35.6 c -1.5,2 -3,4 -4.3,6.2 h 40 v 5.5 c 0,1.4 1.2,2.6 2.6,2.6 h 29.7 v 39.6 h -21.6 c -1.5,-8.7 -9,-15.3 -18.1,-15.3 -9.1,0 -16.7,6.6 -18.1,15.3 h -29.4 c 0,1 -0.1,2 -0.1,3.1 0,1 0,2.1 0.1,3.1 h 29.4 c 1.5,8.7 9,15.3 18.1,15.3 9.1,0 16.7,-6.6 18.1,-15.3 h 21.6 v 50.8 h -70.3 c 0.7,1 1.5,2.1 2.3,3.1 h 71.1 z"
   id="path21"
   inkscape:connector-curvature="0"
   style="fill:#ffffff" /><path
   class="st3"
   d="m 277.00307,499.32677 v 57 h -71.1 c 0.8,1 1.6,2.1 2.5,3.1 h 65.5 v 33.4 c 2,0.1 4.1,0.2 6.2,0.2 v -33.7 h 21.5 c 1.5,8.7 9,15.3 18.1,15.3 9.1,0 16.7,-6.6 18.1,-15.3 h 14.3 c 1.7,-2 3.2,-4 4.7,-6.2 h -19 c -1.5,-8.7 -9,-15.3 -18.1,-15.3 -9.1,0 -16.7,6.6 -18.1,15.3 h -21.6 v -50.8 h 21.3 v 6 c 0,1.2 1,2.2 2.2,2.2 h 44.5 c 1.2,0 2.2,-1 2.2,-2.2 v -6 h 23.7 c 0,-1 0.1,-2 0.1,-3.1 h -97 z"
   id="path23"
   inkscape:connector-curvature="0"
   style="fill:#ffffff" /><path
   class="st2"
   d="m 389.50307,437.82677 c -0.7,-1.3 -2.4,-1.7 -3.7,-1 l -6.5,3.9 c -1.3,0.8 -1.7,2.4 -1,3.7 24.7,43.8 17.2,98.8 -18.5,134.6 -21.7,21.7 -50.5,33 -79.5,33 -15.7,0 -31.5,-3.3 -46.3,-10 l 4,-7.4 -15.7,0.5 -15.7,0.4 8.2,13.3 8.2,13.3 4.7,-8.7 c 16.8,7.8 34.7,11.6 52.5,11.6 32.4,0 64.5,-12.6 88.7,-36.8 40,-40 48.3,-101.5 20.6,-150.4 z"
   id="path27"
   inkscape:connector-curvature="0"
   style="fill:#f15b2b" /><path
   class="st2"
   d="m 345.60307,390.72677 -7.6,-13.7 -5.1,8.6 c -47.3,-21.9 -103.8,-12.3 -141.3,25.2 -40,40 -48.3,101.4 -20.6,150.4 0.7,1.3 2.4,1.7 3.7,1 l 6.5,-3.9 c 1.3,-0.8 1.7,-2.4 1,-3.7 -24.7,-43.8 -17.2,-98.8 18.5,-134.6 33.3,-33.3 83.2,-42 125.3,-23.2 l -4.2,7 15.7,0.3 15.7,0.3 z"
   id="path29"
   inkscape:connector-curvature="0"
   style="fill:#f15b2b" /></g>
</svg>