<?xml version="1.0" standalone="no"?>
<!DOCTYPE svg PUBLIC "-//W3C//DTD SVG 20010904//EN"
 "http://www.w3.org/TR/2001/REC-SVG-20010904/DTD/svg10.dtd">
<svg version="1.0" xmlns="http://www.w3.org/2000/svg"
 width="700.000000pt" height="700.000000pt" viewBox="0 0 700.000000 700.000000"
 preserveAspectRatio="xMidYMid meet">
<metadata>
Created by potrace 1.11, written by Peter Selinger 2001-2013
</metadata>
<g transform="translate(0.000000,700.000000) scale(0.100000,-0.100000)"
fill="#000000" stroke="none">
<path d="M3225 6990 c-443 -40 -846 -149 -1235 -337 -377 -181 -661 -383 -961
-682 -286 -287 -483 -560 -663 -920 -441 -879 -483 -1937 -114 -2851 81 -200
203 -434 233 -448 38 -18 41 -17 145 44 117 70 140 90 140 125 0 14 -38 105
-85 200 -221 456 -318 872 -318 1374 -1 524 107 973 347 1441 426 830 1202
1428 2116 1628 467 102 953 96 1417 -19 195 -48 523 -163 523 -183 0 -4 -24
-47 -54 -97 -30 -49 -51 -91 -48 -92 11 -4 857 -21 860 -18 5 4 -412 755 -418
755 -3 0 -31 -44 -62 -98 -88 -149 -69 -139 -174 -93 -289 125 -649 220 -999
262 -121 14 -526 20 -650 9z"/>
<path d="M3175 6095 c-530 -69 -1016 -291 -1409 -642 -103 -92 -258 -255 -306
-323 l-21 -30 485 0 486 0 0 74 c0 89 13 130 46 145 17 8 152 11 444 11 l420
0 0 390 0 390 -22 -1 c-13 -1 -68 -7 -123 -14z"/>
<path d="M3500 5722 l0 -392 415 0 c516 0 485 9 485 -146 l0 -84 581 0 c552 0
581 1 568 18 -115 149 -310 341 -471 464 -181 137 -468 296 -665 368 -253 92
-524 147 -765 157 l-148 6 0 -391z"/>
<path d="M6354 5195 c-59 -36 -111 -71 -116 -78 -18 -28 -4 -74 63 -208 169
-338 264 -654 315 -1045 21 -159 23 -520 5 -684 -101 -908 -572 -1714 -1306
-2237 -718 -511 -1628 -696 -2485 -506 -184 40 -424 117 -573 183 l-47 21 56
106 57 106 -64 -6 c-35 -4 -208 -9 -384 -13 -176 -3 -343 -9 -372 -13 l-52 -6
222 -362 c122 -199 225 -362 229 -363 4 0 34 52 68 115 34 63 65 115 68 115 4
0 52 -20 107 -44 249 -109 598 -205 895 -245 819 -113 1696 90 2390 552 1133
755 1728 2089 1531 3433 -54 363 -158 693 -328 1037 -94 188 -108 207 -157
207 -7 0 -62 -29 -122 -65z"/>
<path d="M1238 4803 c-198 -349 -312 -726 -342 -1130 l-5 -73 408 0 408 0 6
35 c19 114 144 273 262 332 150 75 316 78 464 8 131 -63 253 -211 276 -337 l7
-38 299 0 299 0 0 545 0 545 -424 0 -425 0 -28 24 c-26 23 -28 30 -31 115 l-4
91 -552 0 -551 0 -67 -117z"/>
<path d="M4400 4830 c0 -83 -2 -93 -25 -115 l-24 -25 -426 0 -425 0 0 -545 0
-545 290 0 290 0 0 89 c0 73 3 93 19 112 l19 24 652 0 652 0 19 -24 c16 -19
19 -39 19 -112 l0 -89 326 0 326 0 -7 83 c-34 417 -156 807 -357 1146 l-53 91
-647 0 -648 0 0 -90z"/>
<path d="M900 3361 c0 -33 7 -113 15 -178 49 -388 178 -744 387 -1074 l63 -99
977 0 978 0 0 705 0 705 -299 0 -298 0 -7 -38 c-10 -66 -74 -181 -135 -241
-202 -202 -530 -202 -732 0 -61 60 -125 175 -135 241 l-7 38 -403 0 -404 0 0
-59z"/>
<path d="M3500 2715 l0 -705 298 0 297 0 19 64 c46 161 201 307 366 345 68 16
199 13 261 -5 169 -50 309 -186 353 -343 l17 -61 267 0 267 0 60 93 c225 347
377 805 401 1207 l7 110 -332 0 -332 0 2 -96 c4 -148 77 -134 -680 -134 -560
0 -639 2 -659 16 -20 14 -22 23 -22 115 l0 99 -295 0 -295 0 0 -705z"/>
<path d="M1500 1825 c0 -11 149 -167 233 -244 323 -295 711 -504 1137 -611
110 -28 365 -70 423 -70 l27 0 0 465 0 465 -910 0 c-500 0 -910 -2 -910 -5z"/>
<path d="M3500 1360 l0 -470 58 0 c31 0 109 5 172 10 518 47 1011 248 1420
578 97 79 322 299 341 333 9 18 3 19 -184 19 l-194 0 -22 -66 c-12 -37 -34
-87 -49 -113 -36 -62 -127 -150 -189 -184 -60 -32 -189 -67 -247 -67 -64 0
-169 26 -233 57 -118 56 -252 223 -269 335 l-7 38 -298 0 -299 0 0 -470z"/>
</g>
</svg>
