<?xml version="1.0" standalone="no"?>
<!DOCTYPE svg PUBLIC "-//W3C//DTD SVG 20010904//EN"
 "http://www.w3.org/TR/2001/REC-SVG-20010904/DTD/svg10.dtd">
<svg version="1.0" xmlns="http://www.w3.org/2000/svg"
 width="700.000000pt" height="700.000000pt" viewBox="0 0 700.000000 700.000000"
 preserveAspectRatio="xMidYMid meet">
<metadata>
Created by potrace 1.14, written by Peter Selinger 2001-2017
</metadata>
<g transform="translate(0.000000,700.000000) scale(0.100000,-0.100000)"
fill="#000000" stroke="none">
<path d="M3278 6995 c-2 -1 -38 -5 -80 -9 -100 -8 -214 -23 -313 -42 -44 -9
-93 -18 -110 -20 -55 -9 -289 -73 -380 -104 -425 -146 -798 -355 -1146 -643
-129 -106 -360 -343 -473 -482 -92 -115 -267 -373 -329 -486 -133 -243 -275
-589 -322 -785 -3 -10 -12 -46 -20 -79 -9 -33 -18 -71 -21 -85 -2 -14 -9 -45
-14 -70 -22 -101 -46 -271 -58 -395 -14 -157 -4 -675 13 -705 1 -3 6 -36 10
-75 4 -38 8 -72 10 -75 2 -4 6 -24 9 -46 15 -127 138 -565 190 -679 7 -16 33
-74 56 -129 51 -116 140 -290 163 -317 34 -40 60 -35 175 31 59 35 112 70 117
79 21 34 23 60 5 93 -66 125 -99 190 -119 238 -13 30 -31 73 -41 95 -15 36
-57 146 -80 215 -22 63 -60 198 -65 229 -3 19 -8 38 -11 42 -5 9 -41 198 -49
263 -3 23 -8 57 -10 76 -24 185 -25 609 -1 735 2 11 7 43 10 70 19 132 30 189
67 335 115 461 347 908 660 1275 81 94 288 296 400 390 73 61 325 237 369 258
8 4 31 17 50 29 206 126 597 279 850 333 290 62 457 80 735 79 172 -1 347 -15
480 -39 143 -26 253 -51 354 -80 178 -51 411 -139 411 -154 0 -3 -24 -46 -54
-96 -30 -49 -53 -91 -52 -93 3 -2 228 -7 714 -16 83 -2 152 -1 152 1 0 9 -415
753 -420 753 -3 0 -34 -50 -69 -111 -35 -60 -68 -112 -72 -114 -4 -3 -36 8
-71 23 -244 109 -645 225 -853 248 -27 3 -53 8 -56 9 -3 2 -35 7 -71 10 -35 4
-78 9 -94 11 -32 5 -541 14 -546 9z"/>
<path d="M3319 6116 c-2 -2 -38 -7 -79 -10 -205 -17 -539 -97 -695 -166 -11
-5 -54 -23 -95 -41 -200 -84 -444 -234 -604 -369 -396 -334 -665 -725 -824
-1195 -31 -92 -76 -262 -87 -325 -3 -19 -7 -46 -10 -60 -5 -26 -9 -51 -22
-140 -16 -112 -8 -578 12 -680 2 -13 7 -42 11 -65 19 -132 79 -347 141 -505
178 -451 458 -828 833 -1121 385 -300 871 -492 1362 -536 159 -15 487 -8 598
12 14 2 45 7 69 10 61 9 207 40 272 59 30 9 57 16 62 16 4 0 21 7 37 15 16 8
31 15 32 14 21 -8 280 104 422 182 462 255 849 657 1087 1131 413 822 353
1839 -154 2593 -128 191 -330 424 -473 545 -371 316 -832 533 -1279 604 -100
15 -120 19 -149 22 -41 5 -463 14 -467 10z"/>
<path d="M6352 5194 c-150 -90 -149 -88 -66 -254 97 -195 141 -300 201 -480
26 -78 70 -242 79 -294 3 -17 9 -49 14 -71 15 -67 40 -247 47 -341 13 -164 7
-529 -11 -619 -2 -11 -7 -42 -10 -70 -6 -43 -27 -164 -40 -230 -25 -124 -92
-339 -151 -490 -301 -761 -890 -1374 -1650 -1716 -158 -71 -408 -154 -558
-184 -10 -2 -26 -6 -35 -9 -9 -3 -30 -8 -47 -11 -16 -2 -41 -7 -55 -10 -35 -8
-213 -33 -290 -41 -174 -18 -507 -9 -728 21 -214 28 -529 115 -737 202 -33 14
-70 29 -83 34 -23 9 -23 9 32 113 l56 103 -92 -3 c-51 -1 -208 -5 -348 -9
-417 -11 -425 -12 -422 -27 5 -18 95 -162 104 -166 5 -2 8 -8 8 -12 0 -5 28
-54 63 -110 34 -55 71 -116 82 -134 134 -221 181 -295 188 -293 5 2 34 51 65
109 32 59 60 109 63 113 4 3 60 -16 125 -44 293 -122 611 -207 924 -246 215
-27 659 -27 850 1 440 64 788 171 1144 351 938 475 1605 1332 1841 2363 13 58
26 123 29 145 4 23 8 52 11 65 48 249 55 729 14 1015 -55 392 -166 752 -340
1100 -82 165 -95 183 -134 190 -25 5 -50 -5 -143 -61z"/>
</g>
</svg>
