<?xml version="1.0" encoding="UTF-8" standalone="no"?>
<svg
   xmlns:dc="http://purl.org/dc/elements/1.1/"
   xmlns:cc="http://creativecommons.org/ns#"
   xmlns:rdf="http://www.w3.org/1999/02/22-rdf-syntax-ns#"
   xmlns:svg="http://www.w3.org/2000/svg"
   xmlns="http://www.w3.org/2000/svg"
   height="250.9752"
   width="2826.7354"
   xml:space="preserve"
   viewBox="0 0 2826.7354 250.9752"
   y="0px"
   x="0px"
   id="Layer_1"
   version="1.1"><metadata
   id="metadata3968"><rdf:RDF><cc:Work
       rdf:about=""><dc:format>image/svg+xml</dc:format><dc:type
         rdf:resource="http://purl.org/dc/dcmitype/StillImage" /><dc:title></dc:title></cc:Work></rdf:RDF></metadata><defs
   id="defs3966" />
<style
   id="style3882"
   type="text/css">
	.st0{fill:none;}
	.st1{fill:#FBB042;}
	.st2{fill:#F15B2B;}
	.st3{fill:#FFFFFF;}
	.st4{fill:#424143;}
</style>
<g
   transform="translate(-99.041605,-680.04433)"
   id="g3961">
	<g
   style="stroke:none;stroke-opacity:1"
   transform="translate(-22.471618,226.21425)"
   id="g3959">
	<g
   id="text844"
   style="font-style:normal;font-variant:normal;font-weight:600;font-stretch:normal;font-size:160px;line-height:125%;font-family:Poppins;-inkscape-font-specification:'Poppins, Semi-Bold';font-variant-ligatures:normal;font-variant-caps:normal;font-variant-numeric:normal;font-feature-settings:normal;text-align:start;letter-spacing:0px;word-spacing:0px;writing-mode:lr-tb;text-anchor:start;fill:#424143;fill-opacity:1;stroke:none;stroke-width:4px;stroke-linecap:butt;stroke-linejoin:miter;stroke-opacity:1"
   aria-label="THREAT MODELING CAPABILITIES"><path
     id="path846"
     style="font-style:normal;font-variant:normal;font-weight:600;font-stretch:normal;font-size:160px;font-family:Poppins;-inkscape-font-specification:'Poppins, Semi-Bold';font-variant-ligatures:normal;font-variant-caps:normal;font-variant-numeric:normal;font-feature-settings:normal;text-align:start;writing-mode:lr-tb;text-anchor:start;fill:#424143;fill-opacity:1;stroke:none;stroke-width:4px;stroke-opacity:1"
     d="m 505.5436,524.77935 v 18.08 h -29.76 v 93.6 h -22.4 v -93.6 h -29.76 v -18.08 z" /><path
     id="path848"
     style="font-style:normal;font-variant:normal;font-weight:600;font-stretch:normal;font-size:160px;font-family:Poppins;-inkscape-font-specification:'Poppins, Semi-Bold';font-variant-ligatures:normal;font-variant-caps:normal;font-variant-numeric:normal;font-feature-settings:normal;text-align:start;writing-mode:lr-tb;text-anchor:start;fill:#424143;fill-opacity:1;stroke:none;stroke-width:4px;stroke-opacity:1"
     d="m 614.3711,524.77935 v 111.68 h -22.4 v -47.52 h -47.84 v 47.52 h -22.4 v -111.68 h 22.4 v 45.92 h 47.84 v -45.92 z" /><path
     id="path850"
     style="font-style:normal;font-variant:normal;font-weight:600;font-stretch:normal;font-size:160px;font-family:Poppins;-inkscape-font-specification:'Poppins, Semi-Bold';font-variant-ligatures:normal;font-variant-caps:normal;font-variant-numeric:normal;font-feature-settings:normal;text-align:start;writing-mode:lr-tb;text-anchor:start;fill:#424143;fill-opacity:1;stroke:none;stroke-width:4px;stroke-opacity:1"
     d="m 694.0186,636.45935 -24.64,-43.52 h -10.56 v 43.52 h -22.4 v -111.68 h 41.92 q 12.96,0 22.08,4.64 9.12,4.48 13.6,12.32 4.64,7.68 4.64,17.28 0,11.04 -6.4,20 -6.4,8.8 -19.04,12.16 l 26.72,45.28 z m -35.2,-60.32 h 18.72 q 9.12,0 13.6,-4.32 4.48,-4.48 4.48,-12.32 0,-7.68 -4.48,-11.84 -4.48,-4.32 -13.6,-4.32 h -18.72 z" /><path
     id="path852"
     style="font-style:normal;font-variant:normal;font-weight:600;font-stretch:normal;font-size:160px;font-family:Poppins;-inkscape-font-specification:'Poppins, Semi-Bold';font-variant-ligatures:normal;font-variant-caps:normal;font-variant-numeric:normal;font-feature-settings:normal;text-align:start;writing-mode:lr-tb;text-anchor:start;fill:#424143;fill-opacity:1;stroke:none;stroke-width:4px;stroke-opacity:1"
     d="m 761.3186,542.85935 v 28 h 37.6 v 17.76 h -37.6 v 29.6 h 42.4 v 18.24 h -64.8 v -111.84 h 64.8 v 18.24 z" /><path
     id="path854"
     style="font-style:normal;font-variant:normal;font-weight:600;font-stretch:normal;font-size:160px;font-family:Poppins;-inkscape-font-specification:'Poppins, Semi-Bold';font-variant-ligatures:normal;font-variant-caps:normal;font-variant-numeric:normal;font-feature-settings:normal;text-align:start;writing-mode:lr-tb;text-anchor:start;fill:#424143;fill-opacity:1;stroke:none;stroke-width:4px;stroke-opacity:1"
     d="m 892.3986,615.17935 h -44.48 l -7.36,21.28 h -23.52 l 40.16,-111.84 h 26.08 l 40.16,111.84 h -23.68 z m -6.08,-17.92 -16.16,-46.72 -16.16,46.72 z" /><path
     id="path856"
     style="font-style:normal;font-variant:normal;font-weight:600;font-stretch:normal;font-size:160px;font-family:Poppins;-inkscape-font-specification:'Poppins, Semi-Bold';font-variant-ligatures:normal;font-variant-caps:normal;font-variant-numeric:normal;font-feature-settings:normal;text-align:start;writing-mode:lr-tb;text-anchor:start;fill:#424143;fill-opacity:1;stroke:none;stroke-width:4px;stroke-opacity:1"
     d="m 1014.6061,524.77935 v 18.08 h -29.76 v 93.6 h -22.4 v -93.6 h -29.76 v -18.08 z" /><path
     id="path858"
     style="font-style:normal;font-variant:normal;font-weight:600;font-stretch:normal;font-size:160px;font-family:Poppins;-inkscape-font-specification:'Poppins, Semi-Bold';font-variant-ligatures:normal;font-variant-caps:normal;font-variant-numeric:normal;font-feature-settings:normal;text-align:start;writing-mode:lr-tb;text-anchor:start;fill:#424143;fill-opacity:1;stroke:none;stroke-width:4px;stroke-opacity:1"
     d="m 1190.6786,524.77935 v 111.68 h -22.4 v -72.64 l -29.92,72.64 h -16.96 l -30.08,-72.64 v 72.64 h -22.4 v -111.68 h 25.44 l 35.52,83.04 35.52,-83.04 z" /><path
     id="path860"
     style="font-style:normal;font-variant:normal;font-weight:600;font-stretch:normal;font-size:160px;font-family:Poppins;-inkscape-font-specification:'Poppins, Semi-Bold';font-variant-ligatures:normal;font-variant-caps:normal;font-variant-numeric:normal;font-feature-settings:normal;text-align:start;writing-mode:lr-tb;text-anchor:start;fill:#424143;fill-opacity:1;stroke:none;stroke-width:4px;stroke-opacity:1"
     d="m 1264.5086,637.57935 q -15.68,0 -28.8,-7.36 -13.12,-7.36 -20.8,-20.32 -7.68,-13.12 -7.68,-29.6 0,-16.32 7.68,-29.28 7.68,-13.12 20.8,-20.48 13.12,-7.36 28.8,-7.36 15.84,0 28.8,7.36 13.12,7.36 20.64,20.48 7.68,12.96 7.68,29.28 0,16.48 -7.68,29.6 -7.52,12.96 -20.64,20.32 -13.12,7.36 -28.8,7.36 z m 0,-20 q 10.08,0 17.76,-4.48 7.68,-4.64 12,-13.12 4.32,-8.48 4.32,-19.68 0,-11.2 -4.32,-19.52 -4.32,-8.48 -12,-12.96 -7.68,-4.48 -17.76,-4.48 -10.08,0 -17.92,4.48 -7.68,4.48 -12,12.96 -4.32,8.32 -4.32,19.52 0,11.2 4.32,19.68 4.32,8.48 12,13.12 7.84,4.48 17.92,4.48 z" /><path
     id="path862"
     style="font-style:normal;font-variant:normal;font-weight:600;font-stretch:normal;font-size:160px;font-family:Poppins;-inkscape-font-specification:'Poppins, Semi-Bold';font-variant-ligatures:normal;font-variant-caps:normal;font-variant-numeric:normal;font-feature-settings:normal;text-align:start;writing-mode:lr-tb;text-anchor:start;fill:#424143;fill-opacity:1;stroke:none;stroke-width:4px;stroke-opacity:1"
     d="m 1377.3336,524.77935 q 17.6,0 30.88,6.88 13.44,6.88 20.64,19.68 7.36,12.64 7.36,29.44 0,16.8 -7.36,29.44 -7.2,12.48 -20.64,19.36 -13.28,6.88 -30.88,6.88 h -39.04 v -111.68 z m -0.8,92.64 q 17.6,0 27.2,-9.6 9.6,-9.6 9.6,-27.04 0,-17.44 -9.6,-27.2 -9.6,-9.92 -27.2,-9.92 h -15.84 v 73.76 z" /><path
     id="path864"
     style="font-style:normal;font-variant:normal;font-weight:600;font-stretch:normal;font-size:160px;font-family:Poppins;-inkscape-font-specification:'Poppins, Semi-Bold';font-variant-ligatures:normal;font-variant-caps:normal;font-variant-numeric:normal;font-feature-settings:normal;text-align:start;writing-mode:lr-tb;text-anchor:start;fill:#424143;fill-opacity:1;stroke:none;stroke-width:4px;stroke-opacity:1"
     d="m 1475.3811,542.85935 v 28 h 37.6 v 17.76 h -37.6 v 29.6 h 42.4 v 18.24 h -64.8 v -111.84 h 64.8 v 18.24 z" /><path
     id="path866"
     style="font-style:normal;font-variant:normal;font-weight:600;font-stretch:normal;font-size:160px;font-family:Poppins;-inkscape-font-specification:'Poppins, Semi-Bold';font-variant-ligatures:normal;font-variant-caps:normal;font-variant-numeric:normal;font-feature-settings:normal;text-align:start;writing-mode:lr-tb;text-anchor:start;fill:#424143;fill-opacity:1;stroke:none;stroke-width:4px;stroke-opacity:1"
     d="m 1560.3811,618.69935 h 36.8 v 17.76 h -59.2 v -111.68 h 22.4 z" /><path
     id="path868"
     style="font-style:normal;font-variant:normal;font-weight:600;font-stretch:normal;font-size:160px;font-family:Poppins;-inkscape-font-specification:'Poppins, Semi-Bold';font-variant-ligatures:normal;font-variant-caps:normal;font-variant-numeric:normal;font-feature-settings:normal;text-align:start;writing-mode:lr-tb;text-anchor:start;fill:#424143;fill-opacity:1;stroke:none;stroke-width:4px;stroke-opacity:1"
     d="m 1633.8186,524.77935 v 111.68 h -22.4 v -111.68 z" /><path
     id="path870"
     style="font-style:normal;font-variant:normal;font-weight:600;font-stretch:normal;font-size:160px;font-family:Poppins;-inkscape-font-specification:'Poppins, Semi-Bold';font-variant-ligatures:normal;font-variant-caps:normal;font-variant-numeric:normal;font-feature-settings:normal;text-align:start;writing-mode:lr-tb;text-anchor:start;fill:#424143;fill-opacity:1;stroke:none;stroke-width:4px;stroke-opacity:1"
     d="m 1751.3136,636.45935 h -22.4 l -50.72,-76.64 v 76.64 h -22.4 v -111.84 h 22.4 l 50.72,76.8 v -76.8 h 22.4 z" /><path
     id="path872"
     style="font-style:normal;font-variant:normal;font-weight:600;font-stretch:normal;font-size:160px;font-family:Poppins;-inkscape-font-specification:'Poppins, Semi-Bold';font-variant-ligatures:normal;font-variant-caps:normal;font-variant-numeric:normal;font-feature-settings:normal;text-align:start;writing-mode:lr-tb;text-anchor:start;fill:#424143;fill-opacity:1;stroke:none;stroke-width:4px;stroke-opacity:1"
     d="m 1851.0536,558.37935 q -3.84,-7.04 -10.56,-10.72 -6.72,-3.68 -15.68,-3.68 -9.92,0 -17.6,4.48 -7.68,4.48 -12,12.8 -4.32,8.32 -4.32,19.2 0,11.2 4.32,19.52 4.48,8.32 12.32,12.8 7.84,4.48 18.24,4.48 12.8,0 20.96,-6.72 8.16,-6.88 10.72,-19.04 h -38.4 v -17.12 h 60.48 v 19.52 q -2.24,11.68 -9.6,21.6 -7.36,9.92 -19.04,16 -11.52,5.92 -25.92,5.92 -16.16,0 -29.28,-7.2 -12.96,-7.36 -20.48,-20.32 -7.36,-12.96 -7.36,-29.44 0,-16.48 7.36,-29.44 7.52,-13.12 20.48,-20.32 13.12,-7.36 29.12,-7.36 18.88,0 32.8,9.28 13.92,9.12 19.2,25.76 z" /><path
     id="path874"
     style="font-style:normal;font-variant:normal;font-weight:600;font-stretch:normal;font-size:160px;font-family:Poppins;-inkscape-font-specification:'Poppins, Semi-Bold';font-variant-ligatures:normal;font-variant-caps:normal;font-variant-numeric:normal;font-feature-settings:normal;text-align:start;writing-mode:lr-tb;text-anchor:start;fill:#424143;fill-opacity:1;stroke:none;stroke-width:4px;stroke-opacity:1"
     d="m 1928.7911,580.45935 q 0,-16.48 7.36,-29.44 7.52,-13.12 20.32,-20.32 12.96,-7.36 28.96,-7.36 18.72,0 32.8,9.6 14.08,9.6 19.68,26.56 h -25.76 q -3.84,-8 -10.88,-12 -6.88,-4 -16,-4 -9.76,0 -17.44,4.64 -7.52,4.48 -11.84,12.8 -4.16,8.32 -4.16,19.52 0,11.04 4.16,19.52 4.32,8.32 11.84,12.96 7.68,4.48 17.44,4.48 9.12,0 16,-4 7.04,-4.16 10.88,-12.16 h 25.76 q -5.6,17.12 -19.68,26.72 -13.92,9.44 -32.8,9.44 -16,0 -28.96,-7.2 -12.8,-7.36 -20.32,-20.32 -7.36,-12.96 -7.36,-29.44 z" /><path
     id="path876"
     style="font-style:normal;font-variant:normal;font-weight:600;font-stretch:normal;font-size:160px;font-family:Poppins;-inkscape-font-specification:'Poppins, Semi-Bold';font-variant-ligatures:normal;font-variant-caps:normal;font-variant-numeric:normal;font-feature-settings:normal;text-align:start;writing-mode:lr-tb;text-anchor:start;fill:#424143;fill-opacity:1;stroke:none;stroke-width:4px;stroke-opacity:1"
     d="m 2125.5236,615.17935 h -44.48 l -7.36,21.28 h -23.52 l 40.16,-111.84 h 26.08 l 40.16,111.84 h -23.68 z m -6.08,-17.92 -16.16,-46.72 -16.16,46.72 z" /><path
     id="path878"
     style="font-style:normal;font-variant:normal;font-weight:600;font-stretch:normal;font-size:160px;font-family:Poppins;-inkscape-font-specification:'Poppins, Semi-Bold';font-variant-ligatures:normal;font-variant-caps:normal;font-variant-numeric:normal;font-feature-settings:normal;text-align:start;writing-mode:lr-tb;text-anchor:start;fill:#424143;fill-opacity:1;stroke:none;stroke-width:4px;stroke-opacity:1"
     d="m 2253.1711,559.33935 q 0,8.96 -4.32,16.8 -4.16,7.84 -13.28,12.64 -8.96,4.8 -22.72,4.8 h -18.72 v 42.88 h -22.4 v -111.68 h 41.12 q 12.96,0 22.08,4.48 9.12,4.48 13.6,12.32 4.64,7.84 4.64,17.76 z m -41.28,16.16 q 9.28,0 13.76,-4.16 4.48,-4.32 4.48,-12 0,-16.32 -18.24,-16.32 h -17.76 v 32.48 z" /><path
     id="path880"
     style="font-style:normal;font-variant:normal;font-weight:600;font-stretch:normal;font-size:160px;font-family:Poppins;-inkscape-font-specification:'Poppins, Semi-Bold';font-variant-ligatures:normal;font-variant-caps:normal;font-variant-numeric:normal;font-feature-settings:normal;text-align:start;writing-mode:lr-tb;text-anchor:start;fill:#424143;fill-opacity:1;stroke:none;stroke-width:4px;stroke-opacity:1"
     d="m 2337.3986,615.17935 h -44.48 l -7.36,21.28 h -23.52 l 40.16,-111.84 h 26.08 l 40.16,111.84 h -23.68 z m -6.08,-17.92 -16.16,-46.72 -16.16,46.72 z" /><path
     id="path882"
     style="font-style:normal;font-variant:normal;font-weight:600;font-stretch:normal;font-size:160px;font-family:Poppins;-inkscape-font-specification:'Poppins, Semi-Bold';font-variant-ligatures:normal;font-variant-caps:normal;font-variant-numeric:normal;font-feature-settings:normal;text-align:start;writing-mode:lr-tb;text-anchor:start;fill:#424143;fill-opacity:1;stroke:none;stroke-width:4px;stroke-opacity:1"
     d="m 2446.9661,579.17935 q 9.44,1.76 15.52,9.44 6.08,7.68 6.08,17.6 0,8.96 -4.48,15.84 -4.32,6.72 -12.64,10.56 -8.32,3.84 -19.68,3.84 h -48.16 v -111.68 h 46.08 q 11.36,0 19.52,3.68 8.32,3.68 12.48,10.24 4.32,6.56 4.32,14.88 0,9.76 -5.28,16.32 -5.12,6.56 -13.76,9.28 z m -40.96,-8.32 h 20.48 q 8,0 12.32,-3.52 4.32,-3.68 4.32,-10.4 0,-6.72 -4.32,-10.4 -4.32,-3.68 -12.32,-3.68 h -20.48 z m 22.56,47.36 q 8.16,0 12.64,-3.84 4.64,-3.84 4.64,-10.88 0,-7.2 -4.8,-11.2 -4.8,-4.16 -12.96,-4.16 h -22.08 v 30.08 z" /><path
     id="path884"
     style="font-style:normal;font-variant:normal;font-weight:600;font-stretch:normal;font-size:160px;font-family:Poppins;-inkscape-font-specification:'Poppins, Semi-Bold';font-variant-ligatures:normal;font-variant-caps:normal;font-variant-numeric:normal;font-feature-settings:normal;text-align:start;writing-mode:lr-tb;text-anchor:start;fill:#424143;fill-opacity:1;stroke:none;stroke-width:4px;stroke-opacity:1"
     d="m 2508.8186,524.77935 v 111.68 h -22.4 v -111.68 z" /><path
     id="path886"
     style="font-style:normal;font-variant:normal;font-weight:600;font-stretch:normal;font-size:160px;font-family:Poppins;-inkscape-font-specification:'Poppins, Semi-Bold';font-variant-ligatures:normal;font-variant-caps:normal;font-variant-numeric:normal;font-feature-settings:normal;text-align:start;writing-mode:lr-tb;text-anchor:start;fill:#424143;fill-opacity:1;stroke:none;stroke-width:4px;stroke-opacity:1"
     d="m 2553.1936,618.69935 h 36.8 v 17.76 h -59.2 v -111.68 h 22.4 z" /><path
     id="path888"
     style="font-style:normal;font-variant:normal;font-weight:600;font-stretch:normal;font-size:160px;font-family:Poppins;-inkscape-font-specification:'Poppins, Semi-Bold';font-variant-ligatures:normal;font-variant-caps:normal;font-variant-numeric:normal;font-feature-settings:normal;text-align:start;writing-mode:lr-tb;text-anchor:start;fill:#424143;fill-opacity:1;stroke:none;stroke-width:4px;stroke-opacity:1"
     d="m 2626.6311,524.77935 v 111.68 h -22.4 v -111.68 z" /><path
     id="path890"
     style="font-style:normal;font-variant:normal;font-weight:600;font-stretch:normal;font-size:160px;font-family:Poppins;-inkscape-font-specification:'Poppins, Semi-Bold';font-variant-ligatures:normal;font-variant-caps:normal;font-variant-numeric:normal;font-feature-settings:normal;text-align:start;writing-mode:lr-tb;text-anchor:start;fill:#424143;fill-opacity:1;stroke:none;stroke-width:4px;stroke-opacity:1"
     d="m 2724.6061,524.77935 v 18.08 h -29.76 v 93.6 h -22.4 v -93.6 h -29.76 v -18.08 z" /><path
     id="path892"
     style="font-style:normal;font-variant:normal;font-weight:600;font-stretch:normal;font-size:160px;font-family:Poppins;-inkscape-font-specification:'Poppins, Semi-Bold';font-variant-ligatures:normal;font-variant-caps:normal;font-variant-numeric:normal;font-feature-settings:normal;text-align:start;writing-mode:lr-tb;text-anchor:start;fill:#424143;fill-opacity:1;stroke:none;stroke-width:4px;stroke-opacity:1"
     d="m 2763.1936,524.77935 v 111.68 h -22.4 v -111.68 z" /><path
     id="path894"
     style="font-style:normal;font-variant:normal;font-weight:600;font-stretch:normal;font-size:160px;font-family:Poppins;-inkscape-font-specification:'Poppins, Semi-Bold';font-variant-ligatures:normal;font-variant-caps:normal;font-variant-numeric:normal;font-feature-settings:normal;text-align:start;writing-mode:lr-tb;text-anchor:start;fill:#424143;fill-opacity:1;stroke:none;stroke-width:4px;stroke-opacity:1"
     d="m 2807.5686,542.85935 v 28 h 37.6 v 17.76 h -37.6 v 29.6 h 42.4 v 18.24 h -64.8 v -111.84 h 64.8 v 18.24 z" /><path
     id="path896"
     style="font-style:normal;font-variant:normal;font-weight:600;font-stretch:normal;font-size:160px;font-family:Poppins;-inkscape-font-specification:'Poppins, Semi-Bold';font-variant-ligatures:normal;font-variant-caps:normal;font-variant-numeric:normal;font-feature-settings:normal;text-align:start;writing-mode:lr-tb;text-anchor:start;fill:#424143;fill-opacity:1;stroke:none;stroke-width:4px;stroke-opacity:1"
     d="m 2908.7286,637.57935 q -11.68,0 -21.12,-4 -9.28,-4 -14.72,-11.52 -5.44,-7.52 -5.6,-17.76 h 24 q 0.48,6.88 4.8,10.88 4.48,4 12.16,4 7.84,0 12.32,-3.68 4.48,-3.84 4.48,-9.92 0,-4.96 -3.04,-8.16 -3.04,-3.2 -7.68,-4.96 -4.48,-1.92 -12.48,-4.16 -10.88,-3.2 -17.76,-6.24 -6.72,-3.2 -11.68,-9.44 -4.8,-6.4 -4.8,-16.96 0,-9.92 4.96,-17.28 4.96,-7.36 13.92,-11.2 8.96,-4 20.48,-4 17.28,0 28,8.48 10.88,8.32 12,23.36 h -24.64 q -0.32,-5.76 -4.96,-9.44 -4.48,-3.84 -12,-3.84 -6.56,0 -10.56,3.36 -3.84,3.36 -3.84,9.76 0,4.48 2.88,7.52 3.04,2.88 7.36,4.8 4.48,1.76 12.48,4.16 10.88,3.2 17.76,6.4 6.88,3.2 11.84,9.6 4.96,6.4 4.96,16.8 0,8.96 -4.64,16.64 -4.64,7.68 -13.6,12.32 -8.96,4.48 -21.28,4.48 z" /></g></g>
<circle
   style="fill:none"
   r="93.699997"
   cy="805.31952"
   cx="224.58052"
   class="st0"
   id="SVGID_10_" /><ellipse
   ry="93.505226"
   rx="93.535858"
   cy="805.31885"
   cx="224.60381"
   id="path4969"
   style="fill:#ffffff;stroke-width:1.37953615" /><path
   style="fill:#4b88ef;fill-opacity:1"
   id="path7"
   d="m 254.08052,740.21953 c 1.4,0 2.6,1.2 2.6,2.6 v 5.5 h 42.2 c -17.1,-22.3 -44.1,-36.7 -74.4,-36.7 -0.1,0 -0.2,0 -0.2,0 v 28.6 z"
   class="st1" /><path
   style="fill:#4b88ef;fill-opacity:1"
   id="path5"
   d="m 218.18052,808.41953 h -21.59999 c -1.5,8.7 -9,15.3 -18.1,15.3 -9.1,0 -16.7,-6.6 -18.1,-15.3 h -29.4 c 0.6,18.9 6.8,36.3 17,50.8 h 70.19999 z"
   class="st1" /><path
   style="fill:#4b88ef;fill-opacity:1"
   id="path9"
   d="m 178.38053,786.91953 c 9.1,0 16.7,6.6 18.1,15.3 h 21.59999 v -39.6 h -29.69999 c -1.4,0 -2.6,-1.2 -2.6,-2.6 v -5.5 h -40 c -8.9,13.8 -14.3,30.2 -14.9,47.7 h 29.4 c 1.5,-8.6 9,-15.3 18.1,-15.3 z"
   class="st1" /><path
   style="fill:#4b88ef;fill-opacity:1;stroke-width:1.00136888"
   id="path11"
   d="m 185.78053,742.80419 c 0,-1.40384 1.2,-2.60713 2.6,-2.60713 h 29.69999 v -28.37753 c -27.69999,1.90521 -52.09999,15.74301 -67.99999,36.6 h 35.6 v -5.61534 z"
   class="st1" /><path
   style="fill:#4b88ef;fill-opacity:1"
   id="path13"
   d="m 256.68052,760.11953 c 0,1.4 -1.2,2.6 -2.6,2.6 h -29.7 v 39.6 h 21.3 v -6 c 0,-1.2 1,-2.2 2.2,-2.2 h 44.5 c 1.2,0 2.2,1 2.2,2.2 v 6 h 23.7 c -0.6,-17.6 -6,-33.9 -14.9,-47.7 h -46.6 v 5.5 z"
   class="st1" /><path
   style="fill:#32abdd;fill-opacity:1"
   id="path15"
   d="m 294.66646,814.33515 c 0,1.2 -1,2.2 -2.2,2.2 h -44.5 c -1.2,0 -2.2,-1 -2.2,-2.2 v -6 h -21.3 v 50.8 h 21.6 c 1.5,-8.7 9,-15.3 18.1,-15.3 9.1,0 16.7,6.6 18.1,15.3 h 19 c 10.2,-14.5 16.4,-31.9 17,-50.8 h -23.7 v 6 z"
   class="st2" /><path
   style="fill:#32abdd;fill-opacity:1"
   id="path17"
   d="m 264.08052,880.71953 c -9.1,0 -16.7,-6.6 -18.1,-15.3 h -21.6 v 33.7 c 0.1,0 0.2,0 0.2,0 28.9,0 54.7,-13.1 71.9,-33.7 h -14.3 c -1.5,8.7 -9,15.3 -18.1,15.3 z"
   class="st2" /><path
   style="fill:#32abdd;fill-opacity:1"
   id="path19"
   d="m 152.58053,865.41953 c 15.9,19 39.2,31.6 65.49999,33.4 v -33.4 z"
   class="st2" /><path
   style="fill:#ffffff"
   id="path21"
   d="m 221.28052,862.31953 v -57 h 97 c 0,-1 0,-2.1 -0.1,-3.1 h -23.7 v -6 c 0,-1.2 -1,-2.2 -2.2,-2.2 h -44.5 c -1.2,0 -2.2,1 -2.2,2.2 v 6 h -21.3 v -39.6 h 29.7 c 1.4,0 2.6,-1.2 2.6,-2.6 v -5.5 h 46.6 c -1.4,-2.1 -2.8,-4.2 -4.3,-6.2 h -42.3 v -5.5 c 0,-1.4 -1.2,-2.6 -2.6,-2.6 h -29.7 v -28.6 c -2.1,0 -4.1,0.1 -6.2,0.2 v 28.3 h -29.69999 c -1.4,0 -2.6,1.2 -2.6,2.6 v 5.5 h -35.6 c -1.5,2 -3,4 -4.3,6.2 h 40 v 5.5 c 0,1.4 1.2,2.6 2.6,2.6 h 29.69999 v 39.6 h -21.59999 c -1.5,-8.7 -9,-15.3 -18.1,-15.3 -9.1,0 -16.7,6.6 -18.1,15.3 h -29.4 c 0,1 -0.1,2 -0.1,3.1 0,1 0,2.1 0.1,3.1 h 29.4 c 1.5,8.7 9,15.3 18.1,15.3 9.1,0 16.7,-6.6 18.1,-15.3 h 21.59999 v 50.8 h -70.29999 c 0.7,1 1.5,2.1 2.3,3.1 h 71.09999 z"
   class="st3" /><path
   style="fill:#ffffff"
   id="path23"
   d="m 221.28052,805.31953 v 57 h -71.09999 c 0.8,1 1.6,2.1 2.5,3.1 h 65.49999 v 33.4 c 2,0.1 4.1,0.2 6.2,0.2 v -33.7 h 21.5 c 1.5,8.7 9,15.3 18.1,15.3 9.1,0 16.7,-6.6 18.1,-15.3 h 14.3 c 1.7,-2 3.2,-4 4.7,-6.2 h -19 c -1.5,-8.7 -9,-15.3 -18.1,-15.3 -9.1,0 -16.7,6.6 -18.1,15.3 h -21.6 v -50.8 h 21.3 v 6 c 0,1.2 1,2.2 2.2,2.2 h 44.5 c 1.2,0 2.2,-1 2.2,-2.2 v -6 h 23.7 c 0,-1 0.1,-2 0.1,-3.1 h -97 z"
   class="st3" /><path
   style="fill:#32abdd;fill-opacity:1"
   id="path27"
   d="m 333.78052,743.81953 c -0.7,-1.3 -2.4,-1.7 -3.7,-1 l -6.5,3.9 c -1.3,0.8 -1.7,2.4 -1,3.7 24.7,43.8 17.2,98.8 -18.5,134.6 -21.7,21.7 -50.5,33 -79.5,33 -15.7,0 -31.49999,-3.3 -46.29999,-10 l 4,-7.4 -15.7,0.5 -15.7,0.4 8.2,13.3 8.2,13.3 4.7,-8.7 c 16.8,7.8 34.69999,11.6 52.49999,11.6 32.4,0 64.5,-12.6 88.7,-36.8 40,-40 48.3,-101.5 20.6,-150.4 z"
   class="st2" /><path
   style="fill:#32abdd;fill-opacity:1"
   id="path29"
   d="m 289.88052,696.71953 -7.6,-13.7 -5.1,8.6 c -47.3,-21.9 -103.79999,-12.3 -141.29999,25.2 -40.000017,40 -48.300017,101.4 -20.6,150.4 0.7,1.3 2.4,1.7 3.7,1 l 6.5,-3.9 c 1.3,-0.8 1.7,-2.4 1,-3.7 -24.70001,-43.8 -17.2,-98.8 18.5,-134.6 33.3,-33.3 83.19999,-42 125.29999,-23.2 l -4.2,7 15.7,0.3 15.7,0.3 z"
   class="st2" /></g>
</svg>