<?xml version="1.0" encoding="UTF-8" standalone="no"?>
<svg
   xmlns:dc="http://purl.org/dc/elements/1.1/"
   xmlns:cc="http://creativecommons.org/ns#"
   xmlns:rdf="http://www.w3.org/1999/02/22-rdf-syntax-ns#"
   xmlns:svg="http://www.w3.org/2000/svg"
   xmlns="http://www.w3.org/2000/svg"
   height="250.9752"
   width="674.30792"
   xml:space="preserve"
   viewBox="0 0 674.30792 250.9752"
   y="0px"
   x="0px"
   id="Layer_1"
   version="1.1"><metadata
   id="metadata4118"><rdf:RDF><cc:Work
       rdf:about=""><dc:format>image/svg+xml</dc:format><dc:type
         rdf:resource="http://purl.org/dc/dcmitype/StillImage" /><dc:title></dc:title></cc:Work></rdf:RDF></metadata><defs
   id="defs4116" />
<style
   id="style4032"
   type="text/css">
	.st0{fill:none;}
	.st1{fill:#FBB042;}
	.st2{fill:#F15B2B;}
	.st3{fill:#FFFFFF;}
	.st4{fill:#424143;}
</style>
<g
   transform="translate(-154.76416,-374.05157)"
   id="g4111">
	
	<g
   transform="translate(-6.3779828,0.04543767)"
   id="g4109">
		
		
		
		
		
		
		
		
		
		
		
		
		
		
		
		
		
		
		
		
		
		
		
	<g
   id="text411"
   style="font-style:normal;font-weight:normal;font-size:40px;line-height:125%;font-family:sans-serif;letter-spacing:0px;word-spacing:0px;fill:#000000;fill-opacity:1;stroke:none;stroke-width:1px;stroke-linecap:butt;stroke-linejoin:miter;stroke-opacity:1" />


<g
   id="flowRoot421"
   style="font-style:normal;font-weight:normal;font-size:40px;line-height:125%;font-family:sans-serif;letter-spacing:0px;word-spacing:0px;fill:#424143;fill-opacity:1;stroke:none;stroke-width:1px;stroke-linecap:butt;stroke-linejoin:miter;stroke-opacity:1"
   transform="translate(149.63048,388.25217)"
   aria-label="CAPABILITIES"><path
     id="path1523"
     style="font-style:normal;font-variant:normal;font-weight:600;font-stretch:normal;font-size:61.33333206px;font-family:Poppins;-inkscape-font-specification:'Poppins, Semi-Bold';font-variant-ligatures:normal;font-variant-caps:normal;font-variant-numeric:normal;font-feature-settings:normal;text-align:start;writing-mode:lr-tb;text-anchor:start;fill:#424143;fill-opacity:1"
     d="m 295.02753,179.20651 q 0,-6.31733 2.82133,-11.28533 2.88267,-5.02933 7.78933,-7.78933 4.968,-2.82134 11.10134,-2.82134 7.176,0 12.57333,3.68 5.39733,3.68 7.544,10.18133 h -9.87467 q -1.472,-3.06666 -4.17066,-4.6 -2.63734,-1.53333 -6.13334,-1.53333 -3.74133,0 -6.68533,1.77867 -2.88267,1.71733 -4.53867,4.90666 -1.59466,3.18934 -1.59466,7.48267 0,4.232 1.59466,7.48267 1.656,3.18933 4.53867,4.968 2.944,1.71733 6.68533,1.71733 3.496,0 6.13334,-1.53333 2.69866,-1.59467 4.17066,-4.66134 h 9.87467 q -2.14667,6.56267 -7.544,10.24267 -5.336,3.61867 -12.57333,3.61867 -6.13334,0 -11.10134,-2.76 -4.90666,-2.82134 -7.78933,-7.78934 -2.82133,-4.968 -2.82133,-11.28533 z" /><path
     id="path1525"
     style="font-style:normal;font-variant:normal;font-weight:600;font-stretch:normal;font-size:61.33333206px;font-family:Poppins;-inkscape-font-specification:'Poppins, Semi-Bold';font-variant-ligatures:normal;font-variant-caps:normal;font-variant-numeric:normal;font-feature-settings:normal;text-align:start;writing-mode:lr-tb;text-anchor:start;fill:#424143;fill-opacity:1"
     d="m 370.44165,192.51584 h -17.05067 l -2.82133,8.15734 h -9.016 l 15.39467,-42.872 h 9.99733 l 15.39467,42.872 h -9.07734 z m -2.33067,-6.86933 -6.19466,-17.90933 -6.19467,17.90933 z" /><path
     id="path1527"
     style="font-style:normal;font-variant:normal;font-weight:600;font-stretch:normal;font-size:61.33333206px;font-family:Poppins;-inkscape-font-specification:'Poppins, Semi-Bold';font-variant-ligatures:normal;font-variant-caps:normal;font-variant-numeric:normal;font-feature-settings:normal;text-align:start;writing-mode:lr-tb;text-anchor:start;fill:#424143;fill-opacity:1"
     d="m 419.37319,171.11051 q 0,3.43467 -1.656,6.44 -1.59467,3.00533 -5.09067,4.84533 -3.43466,1.84 -8.70933,1.84 h -7.176 v 16.43734 h -8.58667 v -42.81067 h 15.76267 q 4.968,0 8.464,1.71734 3.496,1.71733 5.21333,4.72266 1.77867,3.00533 1.77867,6.808 z m -15.824,6.19467 q 3.55733,0 5.27467,-1.59467 1.71733,-1.656 1.71733,-4.6 0,-6.256 -6.992,-6.256 h -6.808 v 12.45067 z" /><path
     id="path1529"
     style="font-style:normal;font-variant:normal;font-weight:600;font-stretch:normal;font-size:61.33333206px;font-family:Poppins;-inkscape-font-specification:'Poppins, Semi-Bold';font-variant-ligatures:normal;font-variant-caps:normal;font-variant-numeric:normal;font-feature-settings:normal;text-align:start;writing-mode:lr-tb;text-anchor:start;fill:#424143;fill-opacity:1"
     d="m 451.6604,192.51584 h -17.05067 l -2.82133,8.15734 h -9.016 l 15.39467,-42.872 h 9.99733 l 15.39467,42.872 h -9.07734 z m -2.33067,-6.86933 -6.19466,-17.90933 -6.19467,17.90933 z" /><path
     id="path1531"
     style="font-style:normal;font-variant:normal;font-weight:600;font-stretch:normal;font-size:61.33333206px;font-family:Poppins;-inkscape-font-specification:'Poppins, Semi-Bold';font-variant-ligatures:normal;font-variant-caps:normal;font-variant-numeric:normal;font-feature-settings:normal;text-align:start;writing-mode:lr-tb;text-anchor:start;fill:#424143;fill-opacity:1"
     d="m 493.66127,178.71584 q 3.61866,0.67467 5.94933,3.61867 2.33067,2.944 2.33067,6.74667 0,3.43466 -1.71734,6.072 -1.656,2.576 -4.84533,4.048 -3.18933,1.472 -7.544,1.472 h -18.46133 v -42.81067 h 17.664 q 4.35466,0 7.48266,1.41067 3.18934,1.41067 4.784,3.92533 1.656,2.51467 1.656,5.704 0,3.74133 -2.024,6.256 -1.96266,2.51467 -5.27466,3.55733 z m -15.70134,-3.18933 h 7.85067 q 3.06667,0 4.72267,-1.34933 1.656,-1.41067 1.656,-3.98667 0,-2.576 -1.656,-3.98667 -1.656,-1.41066 -4.72267,-1.41066 h -7.85067 z m 8.648,18.15467 q 3.128,0 4.84534,-1.472 1.77866,-1.472 1.77866,-4.17067 0,-2.76 -1.84,-4.29333 -1.84,-1.59467 -4.968,-1.59467 h -8.464 v 11.53067 z" /><path
     id="path1533"
     style="font-style:normal;font-variant:normal;font-weight:600;font-stretch:normal;font-size:61.33333206px;font-family:Poppins;-inkscape-font-specification:'Poppins, Semi-Bold';font-variant-ligatures:normal;font-variant-caps:normal;font-variant-numeric:normal;font-feature-settings:normal;text-align:start;writing-mode:lr-tb;text-anchor:start;fill:#424143;fill-opacity:1"
     d="m 517.3714,157.86251 v 42.81067 h -8.58667 v -42.81067 z" /><path
     id="path1535"
     style="font-style:normal;font-variant:normal;font-weight:600;font-stretch:normal;font-size:61.33333206px;font-family:Poppins;-inkscape-font-specification:'Poppins, Semi-Bold';font-variant-ligatures:normal;font-variant-caps:normal;font-variant-numeric:normal;font-feature-settings:normal;text-align:start;writing-mode:lr-tb;text-anchor:start;fill:#424143;fill-opacity:1"
     d="m 534.38181,193.86518 h 14.10666 v 6.808 h -22.69333 v -42.81067 h 8.58667 z" /><path
     id="path1537"
     style="font-style:normal;font-variant:normal;font-weight:600;font-stretch:normal;font-size:61.33333206px;font-family:Poppins;-inkscape-font-specification:'Poppins, Semi-Bold';font-variant-ligatures:normal;font-variant-caps:normal;font-variant-numeric:normal;font-feature-settings:normal;text-align:start;writing-mode:lr-tb;text-anchor:start;fill:#424143;fill-opacity:1"
     d="m 562.53284,157.86251 v 42.81067 h -8.58667 v -42.81067 z" /><path
     id="path1539"
     style="font-style:normal;font-variant:normal;font-weight:600;font-stretch:normal;font-size:61.33333206px;font-family:Poppins;-inkscape-font-specification:'Poppins, Semi-Bold';font-variant-ligatures:normal;font-variant-caps:normal;font-variant-numeric:normal;font-feature-settings:normal;text-align:start;writing-mode:lr-tb;text-anchor:start;fill:#424143;fill-opacity:1"
     d="m 600.08994,157.86251 v 6.93067 h -11.408 v 35.88 h -8.58666 v -35.88 h -11.408 v -6.93067 z" /><path
     id="path1541"
     style="font-style:normal;font-variant:normal;font-weight:600;font-stretch:normal;font-size:61.33333206px;font-family:Poppins;-inkscape-font-specification:'Poppins, Semi-Bold';font-variant-ligatures:normal;font-variant-caps:normal;font-variant-numeric:normal;font-feature-settings:normal;text-align:start;writing-mode:lr-tb;text-anchor:start;fill:#424143;fill-opacity:1"
     d="m 614.88181,157.86251 v 42.81067 h -8.58667 v -42.81067 z" /><path
     id="path1543"
     style="font-style:normal;font-variant:normal;font-weight:600;font-stretch:normal;font-size:61.33333206px;font-family:Poppins;-inkscape-font-specification:'Poppins, Semi-Bold';font-variant-ligatures:normal;font-variant-caps:normal;font-variant-numeric:normal;font-feature-settings:normal;text-align:start;writing-mode:lr-tb;text-anchor:start;fill:#424143;fill-opacity:1"
     d="m 631.89221,164.79318 v 10.73333 h 14.41334 v 6.808 h -14.41334 v 11.34667 h 16.25334 v 6.992 h -24.84 v -42.872 h 24.84 v 6.992 z" /><path
     id="path1545"
     style="font-style:normal;font-variant:normal;font-weight:600;font-stretch:normal;font-size:61.33333206px;font-family:Poppins;-inkscape-font-specification:'Poppins, Semi-Bold';font-variant-ligatures:normal;font-variant-caps:normal;font-variant-numeric:normal;font-feature-settings:normal;text-align:start;writing-mode:lr-tb;text-anchor:start;fill:#424143;fill-opacity:1"
     d="m 670.67022,201.10251 q -4.47733,0 -8.096,-1.53333 -3.55733,-1.53334 -5.64266,-4.416 -2.08534,-2.88267 -2.14667,-6.808 h 9.2 q 0.184,2.63733 1.84,4.17066 1.71733,1.53334 4.66133,1.53334 3.00534,0 4.72267,-1.41067 1.71733,-1.472 1.71733,-3.80267 0,-1.90133 -1.16533,-3.128 -1.16533,-1.22666 -2.944,-1.90133 -1.71733,-0.736 -4.784,-1.59467 -4.17067,-1.22666 -6.808,-2.392 -2.576,-1.22666 -4.47733,-3.61866 -1.84,-2.45334 -1.84,-6.50134 0,-3.80266 1.90133,-6.62399 1.90133,-2.82134 5.336,-4.29334 3.43467,-1.53333 7.85067,-1.53333 6.624,0 10.73333,3.25067 4.17067,3.18933 4.6,8.95466 h -9.44533 q -0.12267,-2.208 -1.90134,-3.61867 -1.71733,-1.47199 -4.6,-1.47199 -2.51466,0 -4.048,1.28799 -1.472,1.288 -1.472,3.74134 0,1.71733 1.104,2.88266 1.16534,1.104 2.82134,1.84 1.71733,0.67467 4.784,1.59467 4.17066,1.22667 6.808,2.45333 2.63733,1.22667 4.53866,3.68 1.90134,2.45334 1.90134,6.44 0,3.43467 -1.77867,6.37867 -1.77867,2.944 -5.21333,4.72267 -3.43467,1.71733 -8.15734,1.71733 z" /></g><g
   id="flowRoot421-6"
   style="font-style:normal;font-weight:normal;font-size:40px;line-height:125%;font-family:sans-serif;letter-spacing:0px;word-spacing:0px;fill:#424143;fill-opacity:1;stroke:none;stroke-width:1px;stroke-linecap:butt;stroke-linejoin:miter;stroke-opacity:1"
   transform="translate(149.68204,254.50926)"
   aria-label="THREAT"><path
     id="path1548"
     style="font-style:normal;font-variant:normal;font-weight:600;font-stretch:normal;font-size:61.33333206px;font-family:Poppins;-inkscape-font-specification:'Poppins, Semi-Bold';font-variant-ligatures:normal;font-variant-caps:normal;font-variant-numeric:normal;font-feature-settings:normal;text-align:start;writing-mode:lr-tb;text-anchor:start;fill:#424143;fill-opacity:1"
     d="m 326.24619,157.86251 v 6.93067 h -11.408 v 35.88 h -8.58666 v -35.88 h -11.408 v -6.93067 z" /><path
     id="path1550"
     style="font-style:normal;font-variant:normal;font-weight:600;font-stretch:normal;font-size:61.33333206px;font-family:Poppins;-inkscape-font-specification:'Poppins, Semi-Bold';font-variant-ligatures:normal;font-variant-caps:normal;font-variant-numeric:normal;font-feature-settings:normal;text-align:start;writing-mode:lr-tb;text-anchor:start;fill:#424143;fill-opacity:1"
     d="m 367.9634,157.86251 v 42.81067 h -8.58667 v -18.216 h -18.33867 v 18.216 h -8.58666 v -42.81067 h 8.58666 v 17.60267 h 18.33867 v -17.60267 z" /><path
     id="path1552"
     style="font-style:normal;font-variant:normal;font-weight:600;font-stretch:normal;font-size:61.33333206px;font-family:Poppins;-inkscape-font-specification:'Poppins, Semi-Bold';font-variant-ligatures:normal;font-variant-caps:normal;font-variant-numeric:normal;font-feature-settings:normal;text-align:start;writing-mode:lr-tb;text-anchor:start;fill:#424143;fill-opacity:1"
     d="m 398.49494,200.67318 -9.44534,-16.68267 h -4.048 v 16.68267 h -8.58666 v -42.81067 h 16.06933 q 4.968,0 8.464,1.77867 3.496,1.71733 5.21333,4.72267 1.77867,2.94399 1.77867,6.62399 0,4.232 -2.45333,7.66667 -2.45334,3.37333 -7.29867,4.66133 l 10.24267,17.35734 z M 385.0016,177.55051 h 7.176 q 3.496,0 5.21334,-1.656 1.71733,-1.71733 1.71733,-4.72267 0,-2.944 -1.71733,-4.53866 -1.71734,-1.656 -5.21334,-1.656 h -7.176 z" /><path
     id="path1554"
     style="font-style:normal;font-variant:normal;font-weight:600;font-stretch:normal;font-size:61.33333206px;font-family:Poppins;-inkscape-font-specification:'Poppins, Semi-Bold';font-variant-ligatures:normal;font-variant-caps:normal;font-variant-numeric:normal;font-feature-settings:normal;text-align:start;writing-mode:lr-tb;text-anchor:start;fill:#424143;fill-opacity:1"
     d="m 424.29327,164.79318 v 10.73333 h 14.41333 v 6.808 h -14.41333 v 11.34667 h 16.25333 v 6.992 h -24.84 v -42.872 h 24.84 v 6.992 z" /><path
     id="path1556"
     style="font-style:normal;font-variant:normal;font-weight:600;font-stretch:normal;font-size:61.33333206px;font-family:Poppins;-inkscape-font-specification:'Poppins, Semi-Bold';font-variant-ligatures:normal;font-variant-caps:normal;font-variant-numeric:normal;font-feature-settings:normal;text-align:start;writing-mode:lr-tb;text-anchor:start;fill:#424143;fill-opacity:1"
     d="m 474.5406,192.51584 h -17.05066 l -2.82134,8.15734 h -9.016 l 15.39467,-42.872 h 9.99733 l 15.39467,42.872 h -9.07733 z m -2.33066,-6.86933 -6.19467,-17.90933 -6.19467,17.90933 z" /><path
     id="path1558"
     style="font-style:normal;font-variant:normal;font-weight:600;font-stretch:normal;font-size:61.33333206px;font-family:Poppins;-inkscape-font-specification:'Poppins, Semi-Bold';font-variant-ligatures:normal;font-variant-caps:normal;font-variant-numeric:normal;font-feature-settings:normal;text-align:start;writing-mode:lr-tb;text-anchor:start;fill:#424143;fill-opacity:1"
     d="m 521.3868,157.86251 v 6.93067 h -11.408 v 35.88 h -8.58666 v -35.88 h -11.408 v -6.93067 z" /></g><g
   id="flowRoot4961"
   style="font-style:normal;font-weight:normal;font-size:40px;line-height:125%;font-family:sans-serif;letter-spacing:0px;word-spacing:0px;fill:#000000;fill-opacity:1;stroke:none;stroke-width:1px;stroke-linecap:butt;stroke-linejoin:miter;stroke-opacity:1" /><g
   id="flowRoot421-7"
   style="font-style:normal;font-weight:normal;font-size:40px;line-height:125%;font-family:sans-serif;letter-spacing:0px;word-spacing:0px;fill:#424143;fill-opacity:1;stroke:none;stroke-width:1px;stroke-linecap:butt;stroke-linejoin:miter;stroke-opacity:1"
   transform="translate(147.59002,321.65672)"
   aria-label="MODELING"><path
     id="path1562"
     style="font-style:normal;font-variant:normal;font-weight:600;font-stretch:normal;font-size:61.33333206px;font-family:Poppins;-inkscape-font-specification:'Poppins, Semi-Bold';font-variant-ligatures:normal;font-variant-caps:normal;font-variant-numeric:normal;font-feature-settings:normal;text-align:start;writing-mode:lr-tb;text-anchor:start;fill:#424143;fill-opacity:1"
     d="m 343.78752,157.86251 v 42.81067 h -8.58666 v -27.84534 l -11.46933,27.84534 h -6.50134 l -11.53066,-27.84534 v 27.84534 h -8.58667 v -42.81067 h 9.752 l 13.616,31.832 13.616,-31.832 z" /><path
     id="path1564"
     style="font-style:normal;font-variant:normal;font-weight:600;font-stretch:normal;font-size:61.33333206px;font-family:Poppins;-inkscape-font-specification:'Poppins, Semi-Bold';font-variant-ligatures:normal;font-variant-caps:normal;font-variant-numeric:normal;font-feature-settings:normal;text-align:start;writing-mode:lr-tb;text-anchor:start;fill:#424143;fill-opacity:1"
     d="m 372.08902,201.10251 q -6.01066,0 -11.04,-2.82133 -5.02933,-2.82134 -7.97333,-7.78934 -2.944,-5.02933 -2.944,-11.34666 0,-6.256 2.944,-11.224 2.944,-5.02933 7.97333,-7.85067 5.02934,-2.82133 11.04,-2.82133 6.072,0 11.04,2.82133 5.02934,2.82134 7.912,7.85067 2.944,4.968 2.944,11.224 0,6.31733 -2.944,11.34666 -2.88266,4.968 -7.912,7.78934 -5.02933,2.82133 -11.04,2.82133 z m 0,-7.66667 q 3.864,0 6.808,-1.71733 2.944,-1.77867 4.6,-5.02933 1.656,-3.25067 1.656,-7.544 0,-4.29334 -1.656,-7.48267 -1.656,-3.25067 -4.6,-4.968 -2.944,-1.71733 -6.808,-1.71733 -3.864,0 -6.86933,1.71733 -2.944,1.71733 -4.6,4.968 -1.656,3.18933 -1.656,7.48267 0,4.29333 1.656,7.544 1.656,3.25066 4.6,5.02933 3.00533,1.71733 6.86933,1.71733 z" /><path
     id="path1566"
     style="font-style:normal;font-variant:normal;font-weight:600;font-stretch:normal;font-size:61.33333206px;font-family:Poppins;-inkscape-font-specification:'Poppins, Semi-Bold';font-variant-ligatures:normal;font-variant-caps:normal;font-variant-numeric:normal;font-feature-settings:normal;text-align:start;writing-mode:lr-tb;text-anchor:start;fill:#424143;fill-opacity:1"
     d="m 415.33861,157.86251 q 6.74666,0 11.83733,2.63734 5.152,2.63733 7.912,7.54399 2.82133,4.84534 2.82133,11.28534 0,6.44 -2.82133,11.28533 -2.76,4.784 -7.912,7.42133 -5.09067,2.63734 -11.83733,2.63734 h -14.96534 v -42.81067 z m -0.30667,35.512 q 6.74667,0 10.42667,-3.68 3.68,-3.68 3.68,-10.36533 0,-6.68534 -3.68,-10.42667 -3.68,-3.80266 -10.42667,-3.80266 h -6.072 v 28.27466 z" /><path
     id="path1568"
     style="font-style:normal;font-variant:normal;font-weight:600;font-stretch:normal;font-size:61.33333206px;font-family:Poppins;-inkscape-font-specification:'Poppins, Semi-Bold';font-variant-ligatures:normal;font-variant-caps:normal;font-variant-numeric:normal;font-feature-settings:normal;text-align:start;writing-mode:lr-tb;text-anchor:start;fill:#424143;fill-opacity:1"
     d="m 452.92348,164.79318 v 10.73333 h 14.41333 v 6.808 h -14.41333 v 11.34667 h 16.25333 v 6.992 h -24.84 v -42.872 h 24.84 v 6.992 z" /><path
     id="path1570"
     style="font-style:normal;font-variant:normal;font-weight:600;font-stretch:normal;font-size:61.33333206px;font-family:Poppins;-inkscape-font-specification:'Poppins, Semi-Bold';font-variant-ligatures:normal;font-variant-caps:normal;font-variant-numeric:normal;font-feature-settings:normal;text-align:start;writing-mode:lr-tb;text-anchor:start;fill:#424143;fill-opacity:1"
     d="m 485.50681,193.86518 h 14.10666 v 6.808 h -22.69333 v -42.81067 h 8.58667 z" /><path
     id="path1572"
     style="font-style:normal;font-variant:normal;font-weight:600;font-stretch:normal;font-size:61.33333206px;font-family:Poppins;-inkscape-font-specification:'Poppins, Semi-Bold';font-variant-ligatures:normal;font-variant-caps:normal;font-variant-numeric:normal;font-feature-settings:normal;text-align:start;writing-mode:lr-tb;text-anchor:start;fill:#424143;fill-opacity:1"
     d="m 513.65785,157.86251 v 42.81067 h -8.58666 v -42.81067 z" /><path
     id="path1574"
     style="font-style:normal;font-variant:normal;font-weight:600;font-stretch:normal;font-size:61.33333206px;font-family:Poppins;-inkscape-font-specification:'Poppins, Semi-Bold';font-variant-ligatures:normal;font-variant-caps:normal;font-variant-numeric:normal;font-feature-settings:normal;text-align:start;writing-mode:lr-tb;text-anchor:start;fill:#424143;fill-opacity:1"
     d="m 558.69761,200.67318 h -8.58667 l -19.44266,-29.37867 v 29.37867 h -8.58667 v -42.872 h 8.58667 l 19.44266,29.44 v -29.44 h 8.58667 z" /><path
     id="path1576"
     style="font-style:normal;font-variant:normal;font-weight:600;font-stretch:normal;font-size:61.33333206px;font-family:Poppins;-inkscape-font-specification:'Poppins, Semi-Bold';font-variant-ligatures:normal;font-variant-caps:normal;font-variant-numeric:normal;font-feature-settings:normal;text-align:start;writing-mode:lr-tb;text-anchor:start;fill:#424143;fill-opacity:1"
     d="m 596.93127,170.74251 q -1.472,-2.69867 -4.048,-4.10933 -2.576,-1.41067 -6.01067,-1.41067 -3.80267,0 -6.74667,1.71733 -2.944,1.71734 -4.6,4.90667 -1.656,3.18933 -1.656,7.36 0,4.29333 1.656,7.48267 1.71734,3.18933 4.72267,4.90666 3.00533,1.71734 6.992,1.71734 4.90667,0 8.03467,-2.576 3.128,-2.63734 4.10933,-7.29867 h -14.72 v -6.56267 h 23.184 v 7.48267 q -0.85867,4.47733 -3.68,8.28 -2.82133,3.80267 -7.29867,6.13333 -4.416,2.26934 -9.936,2.26934 -6.19466,0 -11.224,-2.76 -4.968,-2.82134 -7.85066,-7.78934 -2.82134,-4.968 -2.82134,-11.28533 0,-6.31733 2.82134,-11.28533 2.88266,-5.02933 7.85066,-7.78933 5.02934,-2.82134 11.16267,-2.82134 7.23733,0 12.57333,3.55734 5.336,3.496 7.36,9.87466 z" /></g></g>
<circle
   style="fill:none"
   r="93.699997"
   cy="499.32675"
   cx="280.3031"
   class="st0"
   id="SVGID_10_" /><ellipse
   ry="93.505226"
   rx="93.535858"
   cy="499.32611"
   cx="280.32639"
   id="path4969"
   style="fill:#ffffff;stroke-width:1.37953615" /><path
   style="fill:#4b88ef;fill-opacity:1"
   id="path7"
   d="m 309.80307,434.22677 c 1.4,0 2.6,1.2 2.6,2.6 v 5.5 h 42.2 c -17.1,-22.3 -44.1,-36.7 -74.4,-36.7 -0.1,0 -0.2,0 -0.2,0 v 28.6 z"
   class="st1" /><path
   style="fill:#4b88ef;fill-opacity:1"
   id="path5"
   d="m 273.90307,502.42677 h -21.6 c -1.5,8.7 -9,15.3 -18.1,15.3 -9.1,0 -16.7,-6.6 -18.1,-15.3 h -29.4 c 0.6,18.9 6.8,36.3 17,50.8 h 70.2 z"
   class="st1" /><path
   style="fill:#4b88ef;fill-opacity:1"
   id="path9"
   d="m 234.10307,480.92677 c 9.1,0 16.7,6.6 18.1,15.3 h 21.6 v -39.6 h -29.7 c -1.4,0 -2.6,-1.2 -2.6,-2.6 v -5.5 h -40 c -8.9,13.8 -14.3,30.2 -14.9,47.7 h 29.4 c 1.5,-8.6 9,-15.3 18.1,-15.3 z"
   class="st1" /><path
   style="fill:#4b88ef;fill-opacity:1;stroke-width:1.00136888"
   id="path11"
   d="m 241.50307,436.81143 c 0,-1.40384 1.2,-2.60713 2.6,-2.60713 h 29.7 v -28.37753 c -27.7,1.90521 -52.1,15.74301 -68,36.6 h 35.6 v -5.61534 z"
   class="st1" /><path
   style="fill:#4b88ef;fill-opacity:1"
   id="path13"
   d="m 312.40307,454.12677 c 0,1.4 -1.2,2.6 -2.6,2.6 h -29.7 v 39.6 h 21.3 v -6 c 0,-1.2 1,-2.2 2.2,-2.2 h 44.5 c 1.2,0 2.2,1 2.2,2.2 v 6 h 23.7 c -0.6,-17.6 -6,-33.9 -14.9,-47.7 h -46.6 v 5.5 z"
   class="st1" /><path
   style="fill:#32abdd;fill-opacity:1"
   id="path15"
   d="m 350.38901,508.34239 c 0,1.2 -1,2.2 -2.2,2.2 h -44.5 c -1.2,0 -2.2,-1 -2.2,-2.2 v -6 h -21.3 v 50.8 h 21.6 c 1.5,-8.7 9,-15.3 18.1,-15.3 9.1,0 16.7,6.6 18.1,15.3 h 19 c 10.2,-14.5 16.4,-31.9 17,-50.8 h -23.7 v 6 z"
   class="st2" /><path
   style="fill:#32abdd;fill-opacity:1"
   id="path17"
   d="m 319.80307,574.72677 c -9.1,0 -16.7,-6.6 -18.1,-15.3 h -21.6 v 33.7 c 0.1,0 0.2,0 0.2,0 28.9,0 54.7,-13.1 71.9,-33.7 h -14.3 c -1.5,8.7 -9,15.3 -18.1,15.3 z"
   class="st2" /><path
   style="fill:#32abdd;fill-opacity:1"
   id="path19"
   d="m 208.30307,559.42677 c 15.9,19 39.2,31.6 65.5,33.4 v -33.4 z"
   class="st2" /><path
   style="fill:#ffffff"
   id="path21"
   d="m 277.00307,556.32677 v -57 h 97 c 0,-1 0,-2.1 -0.1,-3.1 h -23.7 v -6 c 0,-1.2 -1,-2.2 -2.2,-2.2 h -44.5 c -1.2,0 -2.2,1 -2.2,2.2 v 6 h -21.3 v -39.6 h 29.7 c 1.4,0 2.6,-1.2 2.6,-2.6 v -5.5 h 46.6 c -1.4,-2.1 -2.8,-4.2 -4.3,-6.2 h -42.3 v -5.5 c 0,-1.4 -1.2,-2.6 -2.6,-2.6 h -29.7 v -28.6 c -2.1,0 -4.1,0.1 -6.2,0.2 v 28.3 h -29.7 c -1.4,0 -2.6,1.2 -2.6,2.6 v 5.5 h -35.6 c -1.5,2 -3,4 -4.3,6.2 h 40 v 5.5 c 0,1.4 1.2,2.6 2.6,2.6 h 29.7 v 39.6 h -21.6 c -1.5,-8.7 -9,-15.3 -18.1,-15.3 -9.1,0 -16.7,6.6 -18.1,15.3 h -29.4 c 0,1 -0.1,2 -0.1,3.1 0,1 0,2.1 0.1,3.1 h 29.4 c 1.5,8.7 9,15.3 18.1,15.3 9.1,0 16.7,-6.6 18.1,-15.3 h 21.6 v 50.8 h -70.3 c 0.7,1 1.5,2.1 2.3,3.1 h 71.1 z"
   class="st3" /><path
   style="fill:#ffffff"
   id="path23"
   d="m 277.00307,499.32677 v 57 h -71.1 c 0.8,1 1.6,2.1 2.5,3.1 h 65.5 v 33.4 c 2,0.1 4.1,0.2 6.2,0.2 v -33.7 h 21.5 c 1.5,8.7 9,15.3 18.1,15.3 9.1,0 16.7,-6.6 18.1,-15.3 h 14.3 c 1.7,-2 3.2,-4 4.7,-6.2 h -19 c -1.5,-8.7 -9,-15.3 -18.1,-15.3 -9.1,0 -16.7,6.6 -18.1,15.3 h -21.6 v -50.8 h 21.3 v 6 c 0,1.2 1,2.2 2.2,2.2 h 44.5 c 1.2,0 2.2,-1 2.2,-2.2 v -6 h 23.7 c 0,-1 0.1,-2 0.1,-3.1 h -97 z"
   class="st3" /><path
   style="fill:#32abdd;fill-opacity:1"
   id="path27"
   d="m 389.50307,437.82677 c -0.7,-1.3 -2.4,-1.7 -3.7,-1 l -6.5,3.9 c -1.3,0.8 -1.7,2.4 -1,3.7 24.7,43.8 17.2,98.8 -18.5,134.6 -21.7,21.7 -50.5,33 -79.5,33 -15.7,0 -31.5,-3.3 -46.3,-10 l 4,-7.4 -15.7,0.5 -15.7,0.4 8.2,13.3 8.2,13.3 4.7,-8.7 c 16.8,7.8 34.7,11.6 52.5,11.6 32.4,0 64.5,-12.6 88.7,-36.8 40,-40 48.3,-101.5 20.6,-150.4 z"
   class="st2" /><path
   style="fill:#32abdd;fill-opacity:1"
   id="path29"
   d="m 345.60307,390.72677 -7.6,-13.7 -5.1,8.6 c -47.3,-21.9 -103.8,-12.3 -141.3,25.2 -40,40 -48.3,101.4 -20.6,150.4 0.7,1.3 2.4,1.7 3.7,1 l 6.5,-3.9 c 1.3,-0.8 1.7,-2.4 1,-3.7 -24.7,-43.8 -17.2,-98.8 18.5,-134.6 33.3,-33.3 83.2,-42 125.3,-23.2 l -4.2,7 15.7,0.3 15.7,0.3 z"
   class="st2" /></g>
</svg>